<svg width="256" height="256" viewBox="0 0 256 256" fill="none" xmlns="http://www.w3.org/2000/svg">
<path d="M224.799 34.5758C226.594 34.5758 228.058 32.9179 227.769 31.0605C226.167 20.7647 217.639 12.9051 207.36 12.9051H192.4L176.427 34.5758H224.799Z" fill="#B3C6C1"/>
<path d="M185.518 212.837V149.089V34.0419C185.518 22.3636 194.985 12.8967 206.663 12.8967H73.7248C62.0465 12.8967 52.5796 22.3636 52.5796 34.0419V149.089V212.839L185.518 212.837Z" fill="#D3EDE5"/>
<path d="M185.521 215.647H52.5795C51.0284 215.647 49.7695 214.391 49.7695 212.837V34.0419C49.7695 20.8321 60.515 10.0867 73.7248 10.0867C75.2759 10.0867 76.5348 11.3456 76.5348 12.8967C76.5348 14.4478 75.2759 15.7067 73.7248 15.7067C63.6144 15.7067 55.3895 23.9316 55.3895 34.0419V210.027H182.711V34.0419C182.711 20.8321 193.456 10.0867 206.663 10.0867C219.87 10.0867 230.616 20.8321 230.616 34.0419C230.616 35.5931 229.359 36.8519 227.806 36.8519H188.331V212.837C188.331 214.391 187.072 215.647 185.521 215.647ZM188.544 31.2319H224.782C223.428 22.4507 215.818 15.7067 206.663 15.7067C197.508 15.7067 189.899 22.4507 188.544 31.2319Z" fill="black"/>
<path d="M206.663 15.7067H73.7248C72.1737 15.7067 70.9148 14.4478 70.9148 12.8967C70.9148 11.3456 72.1737 10.0867 73.7248 10.0867H206.663C208.217 10.0867 209.473 11.3456 209.473 12.8967C209.473 14.4478 208.217 15.7067 206.663 15.7067Z" fill="black"/>
<path d="M79.4544 55.1198H68.664C67.1129 55.1198 65.854 53.8609 65.854 52.3098C65.854 50.7586 67.1129 49.4998 68.664 49.4998H79.4544C81.0055 49.4998 82.2644 50.7586 82.2644 52.3098C82.2644 53.8609 81.0083 55.1198 79.4544 55.1198Z" fill="black"/>
<path d="M168.736 55.1198H101.71C100.158 55.1198 98.8995 53.8609 98.8995 52.3098C98.8995 50.7586 100.158 49.4998 101.71 49.4998H168.736C170.29 49.4998 171.546 50.7586 171.546 52.3098C171.546 53.8609 170.29 55.1198 168.736 55.1198Z" fill="black"/>
<path d="M168.736 82.0171H138.692C137.138 82.0171 135.882 80.7582 135.882 79.2071C135.882 77.6559 137.138 76.3971 138.692 76.3971H168.734C170.288 76.3971 171.544 77.6559 171.544 79.2071C171.544 80.7582 170.29 82.0171 168.736 82.0171Z" fill="black"/>
<path d="M168.736 107.321H138.692C137.138 107.321 135.882 106.062 135.882 104.511C135.882 102.96 137.138 101.701 138.692 101.701H168.734C170.288 101.701 171.544 102.96 171.544 104.511C171.544 106.062 170.29 107.321 168.736 107.321Z" fill="black"/>
<path d="M215.804 225.945H150.783C149.17 225.945 147.864 228.202 147.864 230.984V237.497C147.864 240.375 149.215 242.707 150.885 242.707H215.703C217.372 242.707 218.724 240.375 218.724 237.497V230.984C218.724 228.202 217.414 225.945 215.804 225.945Z" fill="#FCC645"/>
<path d="M215.804 209.184H150.783C149.17 209.184 147.864 211.44 147.864 214.222V220.736C147.864 223.613 149.215 225.945 150.885 225.945H215.703C217.372 225.945 218.724 223.613 218.724 220.736V214.222C218.724 211.44 217.414 209.184 215.804 209.184Z" fill="#FFD36C"/>
<path d="M215.804 192.422H150.783C149.17 192.422 147.864 194.678 147.864 197.46V203.974C147.864 206.851 149.215 209.184 150.885 209.184H215.703C217.372 209.184 218.724 206.851 218.724 203.974V197.46C218.724 194.678 217.414 192.422 215.804 192.422Z" fill="#FCC645"/>
<path d="M215.804 175.66H150.783C149.17 175.66 147.864 177.917 147.864 180.699V187.212C147.864 190.09 149.215 192.422 150.885 192.422H215.703C217.372 192.422 218.724 190.09 218.724 187.212V180.699C218.724 177.917 217.414 175.66 215.804 175.66Z" fill="#FFD36C"/>
<path d="M215.804 158.899H150.783C149.17 158.899 147.864 161.155 147.864 163.937V170.451C147.864 173.328 149.215 175.66 150.885 175.66H215.703C217.372 175.66 218.724 173.328 218.724 170.451V163.937C218.724 161.155 217.414 158.899 215.804 158.899Z" fill="#FCC645"/>
<path d="M215.804 142.137H150.783C149.17 142.137 147.864 144.393 147.864 147.175V153.689C147.864 156.566 149.215 158.899 150.885 158.899H215.703C217.372 158.899 218.724 156.566 218.724 153.689V147.175C218.724 144.393 217.414 142.137 215.804 142.137Z" fill="#FFD36C"/>
<path d="M215.804 125.375H150.783C149.17 125.375 147.864 127.632 147.864 130.414V136.927C147.864 139.805 149.215 142.137 150.885 142.137H215.703C217.372 142.137 218.724 139.805 218.724 136.927V130.414C218.724 127.632 217.414 125.375 215.804 125.375Z" fill="#FCC645"/>
<path d="M215.703 245.517H150.885C147.56 245.517 145.054 242.066 145.054 237.497V230.984C145.054 226.51 147.518 223.135 150.783 223.135H215.804C219.069 223.135 221.534 226.51 221.534 230.984V237.494C221.534 242.069 219.024 245.517 215.703 245.517ZM151.258 239.897H215.329C215.557 239.568 215.914 238.742 215.914 237.497V230.984C215.914 229.854 215.602 229.081 215.391 228.755H151.196C150.989 229.081 150.674 229.854 150.674 230.984V237.494C150.674 238.742 151.031 239.568 151.258 239.897Z" fill="black"/>
<path d="M215.703 228.755H150.885C147.56 228.755 145.054 225.305 145.054 220.736V214.225C145.054 209.751 147.518 206.376 150.783 206.376H215.804C219.069 206.376 221.534 209.751 221.534 214.225V220.736C221.534 225.307 219.024 228.755 215.703 228.755ZM151.258 223.135H215.329C215.557 222.806 215.914 221.98 215.914 220.736V214.225C215.914 213.095 215.602 212.322 215.391 211.996H151.196C150.989 212.322 150.674 213.095 150.674 214.225V220.736C150.674 221.98 151.031 222.806 151.258 223.135Z" fill="black"/>
<path d="M215.703 211.994H150.885C147.56 211.994 145.054 208.543 145.054 203.974V197.46C145.054 192.987 147.518 189.615 150.783 189.615H215.804C219.069 189.615 221.534 192.987 221.534 197.46V203.974C221.534 208.546 219.024 211.994 215.703 211.994ZM151.258 206.374H215.329C215.557 206.045 215.914 205.219 215.914 203.974V197.46C215.914 196.331 215.602 195.561 215.391 195.235H151.196C150.989 195.561 150.674 196.331 150.674 197.46V203.974C150.674 205.219 151.031 206.045 151.258 206.374Z" fill="black"/>
<path d="M215.703 195.235H150.885C147.56 195.235 145.054 191.784 145.054 187.215V180.701C145.054 176.228 147.518 172.856 150.783 172.856H215.804C219.069 172.856 221.534 176.228 221.534 180.701V187.215C221.534 191.784 219.024 195.235 215.703 195.235ZM151.258 189.615H215.329C215.557 189.286 215.914 188.46 215.914 187.215V180.701C215.914 179.572 215.602 178.802 215.391 178.476H151.194C150.989 178.802 150.674 179.572 150.674 180.701V187.215C150.674 188.457 151.031 189.283 151.258 189.615Z" fill="black"/>
<path d="M215.703 178.473H150.885C147.56 178.473 145.054 175.022 145.054 170.453V163.937C145.054 159.463 147.518 156.089 150.783 156.089H215.804C219.069 156.089 221.534 159.463 221.534 163.937V170.451C221.534 175.022 219.024 178.473 215.703 178.473ZM151.258 172.853H215.329C215.557 172.524 215.914 171.698 215.914 170.453V163.937C215.914 162.807 215.602 162.035 215.391 161.709H151.196C150.989 162.035 150.674 162.807 150.674 163.937V170.451C150.674 171.698 151.031 172.524 151.258 172.853Z" fill="black"/>
<path d="M215.703 161.709H150.885C147.56 161.709 145.054 158.258 145.054 153.689V147.178C145.054 142.705 147.518 139.33 150.783 139.33H215.804C219.069 139.33 221.534 142.705 221.534 147.178V153.689C221.534 158.258 219.024 161.709 215.703 161.709ZM151.258 156.089H215.329C215.557 155.76 215.914 154.934 215.914 153.689V147.178C215.914 146.049 215.602 145.276 215.391 144.95H151.196C150.989 145.276 150.674 146.049 150.674 147.178V153.689C150.674 154.934 151.031 155.76 151.258 156.089Z" fill="black"/>
<path d="M215.703 144.947H150.885C147.56 144.947 145.054 141.496 145.054 136.927V130.414C145.054 125.94 147.518 122.568 150.783 122.568H215.804C219.069 122.568 221.534 125.943 221.534 130.414V136.927C221.534 141.496 219.024 144.947 215.703 144.947ZM151.258 139.327H215.329C215.557 138.998 215.914 138.172 215.914 136.927V130.414C215.914 129.284 215.602 128.514 215.391 128.188H151.196C150.989 128.514 150.674 129.284 150.674 130.414V136.927C150.674 138.172 151.031 138.998 151.258 139.327Z" fill="black"/>
<path d="M213.567 242.825C234.521 242.825 251.508 225.838 251.508 204.884C251.508 183.93 234.521 166.944 213.567 166.944C192.613 166.944 175.627 183.93 175.627 204.884C175.627 225.838 192.613 242.825 213.567 242.825Z" fill="#EAAF20"/>
<path d="M213.553 230.124C227.5 230.124 238.807 218.817 238.807 204.87C238.807 190.923 227.5 179.617 213.553 179.617C199.606 179.617 188.3 190.923 188.3 204.87C188.3 218.817 199.606 230.124 213.553 230.124Z" fill="#FFD36C"/>
<path d="M213.368 220.634C209.673 220.634 206.183 218.372 204.808 214.716C204.266 213.264 204.999 211.642 206.452 211.097C207.905 210.563 209.524 211.285 210.072 212.741C210.746 214.548 212.758 215.472 214.587 214.792C216.397 214.112 217.319 212.086 216.636 210.279C216.248 209.243 215.411 208.467 214.34 208.152L211.01 206.941C208.402 206.18 206.225 204.159 205.213 201.45C204.356 199.169 204.44 196.693 205.449 194.473C206.458 192.253 208.273 190.559 210.555 189.705C212.834 188.845 215.309 188.935 217.532 189.941C219.752 190.95 221.446 192.765 222.301 195.046C222.843 196.499 222.11 198.118 220.654 198.663C219.207 199.197 217.583 198.475 217.038 197.016C216.709 196.14 216.057 195.443 215.208 195.058C214.354 194.67 213.401 194.636 212.527 194.968C211.648 195.297 210.951 195.948 210.563 196.797C210.176 197.651 210.147 198.604 210.476 199.478C210.864 200.518 211.701 201.293 212.769 201.608L216.099 202.819C218.709 203.58 220.884 205.601 221.899 208.304C223.666 213.016 221.269 218.288 216.56 220.058C215.509 220.446 214.43 220.634 213.368 220.634Z" fill="black"/>
<path d="M213.556 194.749C212.002 194.749 210.746 193.493 210.746 191.939V188.406C210.746 186.853 212.002 185.596 213.556 185.596C215.11 185.596 216.366 186.853 216.366 188.406V191.939C216.366 193.49 215.11 194.749 213.556 194.749Z" fill="black"/>
<path d="M213.556 224.158C212.002 224.158 210.746 222.902 210.746 221.348V217.819C210.746 216.265 212.002 215.009 213.556 215.009C215.11 215.009 216.366 216.265 216.366 217.819V221.348C216.366 222.899 215.11 224.158 213.556 224.158Z" fill="black"/>
<path d="M213.556 245.627C191.087 245.627 172.808 227.345 172.808 204.876C172.808 182.407 191.087 164.128 213.556 164.128C236.025 164.128 254.307 182.407 254.307 204.876C254.307 227.345 236.025 245.627 213.556 245.627ZM213.556 169.748C194.187 169.748 178.428 185.507 178.428 204.876C178.428 224.248 194.187 240.007 213.556 240.007C232.928 240.007 248.687 224.248 248.687 204.876C248.687 185.509 232.928 169.748 213.556 169.748Z" fill="black"/>
<path d="M190.267 197.935C189.904 197.935 189.536 197.868 189.182 197.719C187.749 197.12 187.075 195.474 187.673 194.041C189.092 190.649 191.127 187.617 193.712 185.032C196.297 182.444 199.329 180.409 202.721 178.993C204.148 178.394 205.8 179.066 206.399 180.502C206.997 181.935 206.323 183.582 204.89 184.18C202.178 185.313 199.756 186.937 197.688 189.008C195.62 191.079 193.996 193.501 192.86 196.21C192.411 197.289 191.365 197.935 190.267 197.935Z" fill="black"/>
<path d="M109.462 77.4536H13.9337C8.56656 77.4536 4.21667 81.8035 4.21667 87.1706V233.1C4.21667 238.467 8.56656 242.816 13.9337 242.816H109.462C114.83 242.816 119.179 238.467 119.179 233.1V87.1706C119.179 81.8035 114.83 77.4536 109.462 77.4536Z" fill="#72E4A0"/>
<path d="M55.7239 142.553H17.9856V180.291H55.7239V142.553Z" fill="#24D3B5"/>
<path d="M105.433 142.553H67.6946V180.291H105.433V142.553Z" fill="#24D3B5"/>
<path d="M55.7239 192.262H17.9856V230H55.7239V192.262Z" fill="#24D3B5"/>
<path d="M105.433 90.8208H17.9856V128.447H105.433V90.8208Z" fill="#E1FFF4"/>
<path d="M105.433 192.262H67.6946V230H105.433V192.262Z" fill="#24D3B5"/>
<path d="M55.7043 183.096H17.9772C16.4261 183.096 15.1672 181.84 15.1672 180.286V142.559C15.1672 141.005 16.4261 139.749 17.9772 139.749H55.7043C57.2554 139.749 58.5143 141.005 58.5143 142.559V180.286C58.5143 181.84 57.2554 183.096 55.7043 183.096ZM20.7872 177.476H52.8943V145.369H20.7872V177.476Z" fill="black"/>
<path d="M36.8408 173.699C35.2896 173.699 34.0308 172.443 34.0308 170.889V151.955C34.0308 150.401 35.2896 149.145 36.8408 149.145C38.3919 149.145 39.6508 150.401 39.6508 151.955V170.889C39.6508 172.443 38.3919 173.699 36.8408 173.699Z" fill="black"/>
<path d="M46.3076 164.232H27.3738C25.8227 164.232 24.5638 162.976 24.5638 161.422C24.5638 159.868 25.8227 158.612 27.3738 158.612H46.3076C47.8587 158.612 49.1176 159.868 49.1176 161.422C49.1176 162.976 47.8587 164.232 46.3076 164.232Z" fill="black"/>
<path d="M105.419 183.096H67.6917C66.1406 183.096 64.8817 181.84 64.8817 180.286V142.559C64.8817 141.005 66.1406 139.749 67.6917 139.749H105.419C106.97 139.749 108.229 141.005 108.229 142.559V180.286C108.229 181.84 106.97 183.096 105.419 183.096ZM70.5017 177.476H102.609V145.369H70.5017V177.476Z" fill="black"/>
<path d="M96.0221 164.232H77.0855C75.5344 164.232 74.2755 162.976 74.2755 161.422C74.2755 159.868 75.5344 158.612 77.0855 158.612H96.0221C97.5732 158.612 98.8321 159.868 98.8321 161.422C98.8321 162.976 97.576 164.232 96.0221 164.232Z" fill="black"/>
<path d="M55.7043 232.813H17.9772C16.4261 232.813 15.1672 231.557 15.1672 230.003V192.276C15.1672 190.722 16.4261 189.466 17.9772 189.466H55.7043C57.2554 189.466 58.5143 190.722 58.5143 192.276V230.003C58.5143 231.554 57.2554 232.813 55.7043 232.813ZM20.7872 227.193H52.8943V195.086H20.7872V227.193Z" fill="black"/>
<path d="M30.1472 220.646C29.4279 220.646 28.7085 220.37 28.1606 219.822C27.0619 218.724 27.0619 216.948 28.1606 215.849L41.5502 202.456C42.6489 201.358 44.4249 201.358 45.5236 202.456C46.6223 203.555 46.6223 205.331 45.5236 206.43L32.1339 219.822C31.5832 220.37 30.8638 220.646 30.1472 220.646Z" fill="black"/>
<path d="M43.5341 220.646C42.8147 220.646 42.0954 220.37 41.5474 219.822L28.1578 206.43C27.0591 205.331 27.0591 203.555 28.1578 202.456C29.2565 201.358 31.0324 201.358 32.1311 202.456L45.5208 215.849C46.6195 216.948 46.6195 218.724 45.5208 219.822C44.9728 220.37 44.2535 220.646 43.5341 220.646Z" fill="black"/>
<path d="M105.419 232.813H67.6917C66.1406 232.813 64.8817 231.557 64.8817 230.003V192.276C64.8817 190.722 66.1406 189.466 67.6917 189.466H105.419C106.97 189.466 108.229 190.722 108.229 192.276V230.003C108.229 231.554 106.97 232.813 105.419 232.813ZM70.5017 227.193H102.609V195.086H70.5017V227.193Z" fill="black"/>
<path d="M96.0221 220.123H77.0855C75.5344 220.123 74.2755 218.867 74.2755 217.313C74.2755 215.759 75.5344 214.503 77.0855 214.503H96.0221C97.5732 214.503 98.8321 215.759 98.8321 217.313C98.8321 218.867 97.576 220.123 96.0221 220.123Z" fill="black"/>
<path d="M96.0221 207.773H77.0855C75.5344 207.773 74.2755 206.517 74.2755 204.963C74.2755 203.409 75.5344 202.153 77.0855 202.153H96.0221C97.5732 202.153 98.8321 203.409 98.8321 204.963C98.8321 206.517 97.576 207.773 96.0221 207.773Z" fill="black"/>
<path d="M109.462 245.627H13.9336C7.02662 245.627 1.40662 240.007 1.40662 233.1V87.1706C1.40662 80.2636 7.02662 74.6436 13.9336 74.6436H109.462C116.369 74.6436 121.989 80.2636 121.989 87.1706V233.1C121.989 240.007 116.369 245.627 109.462 245.627ZM13.9336 80.2636C10.126 80.2636 7.02662 83.363 7.02662 87.1706V233.1C7.02662 236.907 10.126 240.007 13.9336 240.007H109.462C113.27 240.007 116.369 236.907 116.369 233.1V87.1706C116.369 83.363 113.27 80.2636 109.462 80.2636H13.9336Z" fill="black"/>
<path d="M105.419 131.243H17.9772C16.4261 131.243 15.1672 129.984 15.1672 128.433V90.8124C15.1672 89.2612 16.4261 88.0024 17.9772 88.0024H105.419C106.97 88.0024 108.229 89.2612 108.229 90.8124V128.43C108.229 129.984 106.97 131.243 105.419 131.243ZM20.7872 125.623H102.609V93.6224H20.7872V125.623Z" fill="black"/>
</svg>
