<svg width="16" height="16" viewBox="0 0 16 16" fill="none" xmlns="http://www.w3.org/2000/svg">
<g clip-path="url(#clip0_424_139)">
<path d="M15.7762 0.548927C15.4774 0.0468153 14.7702 -0.00446715 14.4021 0.449172L8.26012 8.02142C8.10978 8.2067 7.82404 8.19652 7.68723 8.00122L6.21514 5.89899C5.71426 5.18367 4.67157 5.13766 4.10957 5.80573C3.72197 6.26657 3.69264 6.93026 4.03791 7.42342L7.05111 11.7266C7.41782 12.2503 8.19391 12.2494 8.55938 11.7246L9.42433 10.483L15.7423 1.46007C15.9318 1.18943 15.9449 0.832913 15.7762 0.548927Z" fill="#88D109"/>
<path d="M7.99102 15.8942C3.63323 15.8942 0.0878906 12.3488 0.0878906 7.99104C0.0878906 3.63325 3.63323 0.0879116 7.99102 0.0879116C9.05741 0.0879116 10.0927 0.296905 11.0676 0.709273C11.4248 0.860486 11.592 1.27268 11.4408 1.6299C11.29 1.9873 10.8776 2.15449 10.5202 2.00328C9.71952 1.66467 8.86844 1.49291 7.99102 1.49291C4.40791 1.49291 1.49289 4.40794 1.49289 7.99104C1.49289 11.5741 4.40791 14.4892 7.99102 14.4892C11.5741 14.4892 14.4891 11.5741 14.4891 7.99104C14.4891 7.42061 14.4154 6.85492 14.2698 6.30978C14.1697 5.93499 14.3924 5.54985 14.7672 5.44974C15.1418 5.34946 15.5269 5.57233 15.627 5.94729C15.8042 6.61062 15.8941 7.2982 15.8941 7.99104C15.8941 12.3488 12.3488 15.8942 7.99102 15.8942Z" fill="#6C7783"/>
</g>
<defs>
<clipPath id="clip0_424_139">
<rect width="16" height="16" fill="white"/>
</clipPath>
</defs>
</svg>
