<svg width="21" height="21" viewBox="0 0 21 21" fill="none" xmlns="http://www.w3.org/2000/svg">
<g clip-path="url(#clip0_388_100)">
<path d="M20.6306 6.62723V4.4835L10.4883 0.659378L0.345947 4.4835V6.62723H20.6306Z" fill="#8D9A92"/>
<path d="M20.6306 17.2882H0.345947V20.3171H20.6306V17.2882Z" fill="#8D9A92"/>
<path d="M8.35144 6.62723V9.34492H12.6251V6.62723" fill="#BCCDC3"/>
<path d="M1.58838 6.62723V9.34492H5.8643V6.62723" fill="#BCCDC3"/>
<path d="M15.1122 6.62723V9.34492H19.3881V6.62723" fill="#BCCDC3"/>
<path d="M8.35144 17.2882V14.5705H12.6251V17.2882" fill="#BCCDC3"/>
<path d="M15.1122 17.2882V14.5705H19.3881V17.2882" fill="#BCCDC3"/>
<path d="M18.6113 9.34492H15.8867V14.5682H18.6113V9.34492Z" fill="#8D9A92"/>
<path d="M11.8506 9.34492H9.12598V14.5682H11.8506V9.34492Z" fill="#8D9A92"/>
<path d="M5.08971 9.34492H2.36511V14.5682H5.08971V9.34492Z" fill="#8D9A92"/>
<path d="M1.58838 17.2882V14.5705H5.8643V17.2882" fill="#BCCDC3"/>
<path d="M20.6306 6.85774H0.345864C0.218624 6.85774 0.115356 6.75447 0.115356 6.62723V4.48304C0.115356 4.38715 0.174827 4.30117 0.264495 4.26729L10.4068 0.443396C10.4592 0.423572 10.5173 0.423572 10.5693 0.443396L20.7117 4.26729C20.8016 4.30094 20.8608 4.38715 20.8608 4.48304V6.62723C20.8611 6.75447 20.758 6.85774 20.6306 6.85774ZM0.576372 6.39672H20.4V4.64256L10.4882 0.905333L0.576372 4.64233V6.39672Z" fill="white"/>
<path d="M20.6306 20.5481H0.345864C0.218624 20.5481 0.115356 20.445 0.115356 20.3175V17.2882C0.115356 17.1607 0.218624 17.0577 0.345864 17.0577H20.6306C20.758 17.0577 20.8611 17.1607 20.8611 17.2882V20.3175C20.8611 20.4448 20.758 20.5481 20.6306 20.5481ZM0.576372 20.087H20.4V17.5187H0.576372V20.087Z" fill="white"/>
<path d="M12.6257 9.57611H8.35075C8.22351 9.57611 8.12024 9.47285 8.12024 9.34561V6.62723C8.12024 6.49999 8.22351 6.39672 8.35075 6.39672C8.47799 6.39672 8.58125 6.49999 8.58125 6.62723V9.11533H12.3955V6.62723C12.3955 6.49999 12.4985 6.39672 12.626 6.39672C12.7534 6.39672 12.8565 6.49999 12.8565 6.62723V9.34584C12.8563 9.47308 12.7532 9.57611 12.6257 9.57611Z" fill="white"/>
<path d="M5.86426 9.57611H1.58903C1.46179 9.57611 1.35852 9.47285 1.35852 9.34561V6.62723C1.35852 6.49999 1.46179 6.39672 1.58903 6.39672C1.71627 6.39672 1.81954 6.49999 1.81954 6.62723V9.11533H5.63375V6.62723C5.63375 6.49999 5.73702 6.39672 5.86426 6.39672C5.9915 6.39672 6.09476 6.49999 6.09476 6.62723V9.34584C6.09476 9.47308 5.9915 9.57611 5.86426 9.57611Z" fill="white"/>
<path d="M19.3872 9.57611H15.1122C14.9848 9.57611 14.8817 9.47285 14.8817 9.34561V6.62723C14.8817 6.49999 14.9848 6.39672 15.1122 6.39672C15.2397 6.39672 15.3427 6.49999 15.3427 6.62723V9.11533H19.1569V6.62723C19.1569 6.49999 19.26 6.39672 19.3875 6.39672C19.5149 6.39672 19.618 6.49999 19.618 6.62723V9.34584C19.6177 9.47308 19.5147 9.57611 19.3872 9.57611Z" fill="white"/>
<path d="M12.6257 17.5187C12.4983 17.5187 12.3952 17.4157 12.3952 17.2882V14.8001H8.58125V17.2882C8.58125 17.4157 8.47799 17.5187 8.35075 17.5187C8.22351 17.5187 8.12024 17.4157 8.12024 17.2882V14.5696C8.12024 14.4421 8.22351 14.3391 8.35075 14.3391H12.626C12.7534 14.3391 12.8565 14.4421 12.8565 14.5696V17.2882C12.8563 17.4157 12.7532 17.5187 12.6257 17.5187Z" fill="white"/>
<path d="M19.3872 17.5187C19.2598 17.5187 19.1567 17.4157 19.1567 17.2882V14.8001H15.3427V17.2882C15.3427 17.4157 15.2397 17.5187 15.1122 17.5187C14.9848 17.5187 14.8817 17.4157 14.8817 17.2882V14.5696C14.8817 14.4421 14.9848 14.3391 15.1122 14.3391H19.3875C19.5149 14.3391 19.618 14.4421 19.618 14.5696V17.2882C19.6177 17.4157 19.5147 17.5187 19.3872 17.5187Z" fill="white"/>
<path d="M18.6118 14.8001H15.8879C15.7604 14.8001 15.6573 14.6971 15.6573 14.5696V9.34561C15.6573 9.21837 15.7604 9.1151 15.8879 9.1151H18.6118C18.7392 9.1151 18.8423 9.21837 18.8423 9.34561V14.5696C18.8423 14.6971 18.7392 14.8001 18.6118 14.8001ZM16.1184 14.3391H18.3813V9.57612H16.1184V14.3391Z" fill="white"/>
<path d="M11.8501 14.8001H9.12638C8.99914 14.8001 8.89587 14.6971 8.89587 14.5696V9.34561C8.89587 9.21837 8.99914 9.1151 9.12638 9.1151H11.8501C11.9775 9.1151 12.0806 9.21837 12.0806 9.34561V14.5696C12.0806 14.6971 11.9775 14.8001 11.8501 14.8001ZM9.35689 14.3391H11.6196V9.57612H9.35689V14.3391Z" fill="white"/>
<path d="M5.08857 14.8001H2.36466C2.23742 14.8001 2.13416 14.6971 2.13416 14.5696V9.34561C2.13416 9.21837 2.23742 9.1151 2.36466 9.1151H5.08857C5.21581 9.1151 5.31908 9.21837 5.31908 9.34561V14.5696C5.31908 14.6971 5.21581 14.8001 5.08857 14.8001ZM2.59517 14.3391H4.85807V9.57612H2.59517V14.3391Z" fill="white"/>
<path d="M5.86426 17.5187C5.73702 17.5187 5.63375 17.4157 5.63375 17.2882V14.8001H1.81954V17.2882C1.81954 17.4157 1.71627 17.5187 1.58903 17.5187C1.46179 17.5187 1.35852 17.4157 1.35852 17.2882V14.5696C1.35852 14.4421 1.46179 14.3391 1.58903 14.3391H5.86426C5.9915 14.3391 6.09476 14.4421 6.09476 14.5696V17.2882C6.09476 17.4157 5.9915 17.5187 5.86426 17.5187Z" fill="white"/>
</g>
<defs>
<clipPath id="clip0_388_100">
<rect width="21" height="21" fill="white"/>
</clipPath>
</defs>
</svg>
