<svg width="21" height="21" viewBox="0 0 21 21" fill="none" xmlns="http://www.w3.org/2000/svg">
<path d="M10.4366 10.608C10.5987 10.657 10.7576 10.7086 10.9177 10.7594L10.5 10.499C12.8289 7.36724 12.4829 3.81289 10.5 0C4.56523 0 -0.219491 4.92332 0.00777455 10.9081C0.147307 14.58 2.21323 17.7911 5.21342 19.5561C8.46794 17.1936 10.189 14.2027 10.4366 10.608Z" fill="#58627F"/>
<path d="M19.5685 15.7915C17.3743 13.3252 14.2637 11.6354 10.5001 10.499L5.2074 19.5668C10.2156 22.4898 16.6454 20.7993 19.5685 15.7915Z" fill="#E87D62"/>
<path d="M10.5 10.499L19.4107 16.0526C20.4897 14.3217 21.0009 12.3986 20.999 10.499C17.499 9.43013 13.9993 9.43037 10.5 10.499Z" fill="#76BE88"/>
<path d="M10.5 0V10.499H21C21 4.70072 16.299 0 10.5 0Z" fill="#F0C419"/>
</svg>
