<svg width="21" height="21" viewBox="0 0 21 21" fill="none" xmlns="http://www.w3.org/2000/svg">
<g clip-path="url(#clip0_584_64)">
<path d="M18.037 8.95176C17.7712 4.91978 14.549 1.69752 10.5167 1.43178V8.95176H18.037Z" fill="#72D54A"/>
<path d="M11.8212 6.7115C11.7528 6.7115 11.6847 6.68307 11.6361 6.62717C11.5474 6.52495 11.5582 6.37026 11.6604 6.28127L15.8169 2.66604C15.8615 2.6273 15.9187 2.60573 15.9777 2.60573H19.7131C19.8487 2.60573 19.9582 2.71556 19.9582 2.85088C19.9582 2.9862 19.8487 3.09603 19.7131 3.09603H16.0697L11.982 6.6512C11.9355 6.69165 11.8783 6.7115 11.8212 6.7115Z" fill="#C1C1C1"/>
<path d="M19.7131 1.4903H16.0606C15.925 1.4903 15.8154 1.38047 15.8154 1.24515C15.8154 1.10983 15.925 1 16.0606 1H19.7131C19.8486 1 19.9582 1.10983 19.9582 1.24515C19.9582 1.38047 19.8486 1.4903 19.7131 1.4903Z" fill="#C1C1C1"/>
<path d="M3.89764 17.9539H0.24515C0.109827 17.9539 0 17.8443 0 17.7087C0 17.5731 0.109827 17.4636 0.24515 17.4636H3.89764C4.03297 17.4636 4.14279 17.5731 4.14279 17.7087C4.14279 17.8443 4.03297 17.9539 3.89764 17.9539Z" fill="#C1C1C1"/>
<path d="M13.1551 19.0657H10.1398V21.3456H13.1551V19.0657Z" fill="#FF7258"/>
<path d="M17.0776 12.9345H14.0623V21.3431H17.0776V12.9345Z" fill="#00ABE0"/>
<path d="M21 16.6142H17.9846V21.3456H21V16.6142Z" fill="#72D54A"/>
<path d="M13.0818 12.9357V11.9551H14.0624H17.0775H17.6708C17.8672 11.3415 17.9927 10.6965 18.0366 10.029H9.43962V1.43178C5.22917 1.70929 1.89954 5.21003 1.89954 9.49036C1.89954 13.9521 5.51648 17.5688 9.97797 17.5688C11.0782 17.5688 12.1262 17.3474 13.0818 16.9491V12.9357Z" fill="#00ABE0"/>
<path d="M3.98026 16.3479H0.24515C0.109827 16.3479 0 16.2383 0 16.1027C0 15.9672 0.109827 15.8576 0.24515 15.8576H3.88857L7.97621 12.3024C8.07844 12.2139 8.23337 12.2245 8.32212 12.3267C8.41111 12.4289 8.40007 12.5838 8.29809 12.6726L4.14132 16.2878C4.09646 16.3266 4.03959 16.3479 3.98026 16.3479Z" fill="#C1C1C1"/>
</g>
<defs>
<clipPath id="clip0_584_64">
<rect width="21" height="21" fill="white"/>
</clipPath>
</defs>
</svg>
