<svg width="16" height="16" viewBox="0 0 16 16" fill="none" xmlns="http://www.w3.org/2000/svg">
<g clip-path="url(#clip0_424_168)">
<path d="M15.2795 7.37635H8.6057V0.702601C8.6057 0.363118 8.3305 0.0879135 7.99102 0.0879135C7.65153 0.0879135 7.37633 0.363118 7.37633 0.702601V7.37635H0.702578C0.363095 7.37635 0.0878906 7.65156 0.0878906 7.99104C0.0878906 8.33052 0.363095 8.60573 0.702578 8.60573H7.37633V15.2795C7.37633 15.619 7.65153 15.8942 7.99102 15.8942C8.3305 15.8942 8.6057 15.619 8.6057 15.2795V8.60573H15.2795C15.6189 8.60573 15.8941 8.33052 15.8941 7.99104C15.8941 7.65156 15.6189 7.37635 15.2795 7.37635Z" fill="white"/>
</g>
<defs>
<clipPath id="clip0_424_168">
<rect width="16" height="16" fill="white"/>
</clipPath>
</defs>
</svg>
