<svg width="21" height="21" viewBox="0 0 21 21" fill="none" xmlns="http://www.w3.org/2000/svg">
<path d="M2.32874 0.345825V20.6305H5.68931C5.98367 20.0174 6.60834 19.593 7.33375 19.593C8.05916 19.593 8.68407 20.0174 8.97842 20.6305H11.9981C12.2924 20.0174 12.9171 19.593 13.6425 19.593C14.3679 19.593 14.9928 20.0174 15.287 20.6305H18.6475V0.345825H2.32874Z" fill="#EAE78B"/>
<path d="M18.6476 20.8611H15.287C15.1983 20.8611 15.1176 20.8101 15.0793 20.7304C14.811 20.1709 14.2603 19.8235 13.6428 19.8235C13.0253 19.8235 12.4746 20.1711 12.206 20.7304C12.1675 20.8101 12.0869 20.8611 11.9981 20.8611H8.97846C8.88972 20.8611 8.80904 20.8101 8.77078 20.7304C8.50223 20.1709 7.95178 19.8235 7.33402 19.8235C6.71626 19.8235 6.16581 20.1709 5.89727 20.7304C5.859 20.8101 5.77809 20.8611 5.68935 20.8611H2.32877C2.20153 20.8611 2.09827 20.758 2.09827 20.6306V0.345864C2.09827 0.218624 2.20153 0.115356 2.32877 0.115356H18.6476C18.775 0.115356 18.8781 0.218624 18.8781 0.345864V20.6306C18.8781 20.758 18.775 20.8611 18.6476 20.8611ZM15.4262 20.4H18.4173V0.576372H2.55928V20.4H5.55035C5.91386 19.7652 6.59847 19.3625 7.33402 19.3625C8.06957 19.3625 8.75418 19.7652 9.11769 20.4H11.8591C12.2229 19.7652 12.9077 19.3625 13.6428 19.3625C14.3781 19.3625 15.0627 19.7652 15.4262 20.4Z" fill="white"/>
<path d="M6.24486 9.43599H5.49687C5.36962 9.43599 5.26636 9.33272 5.26636 9.20548C5.26636 9.07824 5.36962 8.97498 5.49687 8.97498H6.24486C6.3721 8.97498 6.47537 9.07824 6.47537 9.20548C6.47537 9.33272 6.3721 9.43599 6.24486 9.43599Z" fill="black"/>
<path d="M15.4797 9.43599H7.80192C7.67468 9.43599 7.57141 9.33272 7.57141 9.20548C7.57141 9.07824 7.67468 8.97498 7.80192 8.97498H15.4797C15.6071 8.97498 15.7102 9.07824 15.7102 9.20548C15.7102 9.33272 15.6071 9.43599 15.4797 9.43599Z" fill="black"/>
<path d="M6.24486 11.7413H5.49687C5.36962 11.7413 5.26636 11.6383 5.26636 11.5108C5.26636 11.3833 5.36962 11.2803 5.49687 11.2803H6.24486C6.3721 11.2803 6.47537 11.3833 6.47537 11.5108C6.47537 11.6383 6.3721 11.7413 6.24486 11.7413Z" fill="black"/>
<path d="M15.4797 11.7413H7.80192C7.67468 11.7413 7.57141 11.6383 7.57141 11.5108C7.57141 11.3833 7.67468 11.2803 7.80192 11.2803H15.4797C15.6071 11.2803 15.7102 11.3833 15.7102 11.5108C15.7102 11.6383 15.6071 11.7413 15.4797 11.7413Z" fill="black"/>
<path d="M6.24486 14.0463H5.49687C5.36962 14.0463 5.26636 13.9433 5.26636 13.8158C5.26636 13.6884 5.36962 13.5853 5.49687 13.5853H6.24486C6.3721 13.5853 6.47537 13.6884 6.47537 13.8158C6.47537 13.9433 6.3721 14.0463 6.24486 14.0463Z" fill="black"/>
<path d="M15.4797 14.0463H7.80192C7.67468 14.0463 7.57141 13.9433 7.57141 13.8158C7.57141 13.6884 7.67468 13.5853 7.80192 13.5853H15.4797C15.6071 13.5853 15.7102 13.6884 15.7102 13.8158C15.7102 13.9433 15.6071 14.0463 15.4797 14.0463Z" fill="black"/>
<path d="M15.4797 16.3514H13.076C12.9485 16.3514 12.8455 16.2484 12.8455 16.1209C12.8455 15.9934 12.9485 15.8904 13.076 15.8904H15.4799C15.6074 15.8904 15.7104 15.9934 15.7104 16.1209C15.7104 16.2484 15.6072 16.3514 15.4797 16.3514Z" fill="black"/>
<path d="M11.5191 5.31933C11.3917 5.31933 11.2886 5.21606 11.2886 5.08882C11.2886 4.93046 11.1598 4.80184 11.0019 4.80184C10.8744 4.80184 10.7714 4.69857 10.7714 4.57133C10.7714 4.44409 10.8744 4.34082 11.0019 4.34082C11.4142 4.34082 11.7496 4.67644 11.7496 5.08882C11.7496 5.21606 11.6464 5.31933 11.5191 5.31933Z" fill="black"/>
<path d="M10.4883 2.97024C10.3611 2.97024 10.2578 2.86697 10.2578 2.73973V2.09892C10.2578 1.97168 10.3611 1.86841 10.4883 1.86841C10.6156 1.86841 10.7188 1.97168 10.7188 2.09892V2.73973C10.7188 2.8672 10.6156 2.97024 10.4883 2.97024Z" fill="black"/>
<path d="M11.0018 4.80179H9.97493C9.56232 4.80179 9.22693 4.46617 9.22693 4.05379V3.25715C9.22693 2.84454 9.56255 2.50916 9.97493 2.50916H11.0018C11.4142 2.50916 11.7496 2.84477 11.7496 3.25715C11.7496 3.38439 11.6466 3.48766 11.5191 3.48766C11.3916 3.48766 11.2886 3.38439 11.2886 3.25715C11.2886 3.09879 11.1597 2.97017 11.0018 2.97017H9.97493C9.81657 2.97017 9.68794 3.09902 9.68794 3.25715V4.05379C9.68794 4.21215 9.8168 4.34077 9.97493 4.34077H11.0018C11.1293 4.34077 11.2323 4.44404 11.2323 4.57128C11.2323 4.69852 11.1291 4.80179 11.0018 4.80179Z" fill="black"/>
<path d="M10.4883 7.27442C10.3611 7.27442 10.2578 7.17115 10.2578 7.04391V6.40287C10.2578 6.27563 10.3611 6.17236 10.4883 6.17236C10.6156 6.17236 10.7188 6.27563 10.7188 6.40287V7.04391C10.7188 7.17115 10.6156 7.27442 10.4883 7.27442Z" fill="black"/>
<path d="M11.0018 6.63342H9.97493C9.56232 6.63342 9.22693 6.2978 9.22693 5.88542C9.22693 5.75818 9.3302 5.65491 9.45744 5.65491C9.58468 5.65491 9.68794 5.75818 9.68794 5.88542C9.68794 6.04378 9.8168 6.1724 9.97493 6.1724H11.0018C11.16 6.1724 11.2886 6.04378 11.2886 5.88542V5.08878C11.2886 4.96154 11.3916 4.85828 11.5191 4.85828C11.6466 4.85828 11.7496 4.96154 11.7496 5.08878V5.88542C11.7496 6.2978 11.4142 6.63342 11.0018 6.63342Z" fill="black"/>
<path d="M14.0264 20.5172C17.6095 20.5172 20.5143 17.6125 20.5143 14.0293C20.5143 10.4461 17.6095 7.54138 14.0264 7.54138C10.4432 7.54138 7.53845 10.4461 7.53845 14.0293C7.53845 17.6125 10.4432 20.5172 14.0264 20.5172Z" fill="#66CC4A"/>
<path d="M14.0273 21C10.1823 21 7.05469 17.8724 7.05469 14.0273C7.05469 10.1823 10.1823 7.05469 14.0273 7.05469C17.8724 7.05469 21 10.1828 21 14.0278C21 17.8729 17.8724 21 14.0273 21ZM14.0273 8.02468C10.7175 8.02468 8.02419 10.718 8.02419 14.0278C8.02419 17.3377 10.7175 20.031 14.0273 20.031C17.3372 20.031 20.0305 17.3377 20.0305 14.0278C20.0305 10.718 17.3372 8.02468 14.0273 8.02468Z" fill="#6C7783"/>
<path d="M16.7076 14.5126H11.3472C11.0791 14.5126 10.8624 14.2959 10.8624 14.0278C10.8624 13.7598 11.0791 13.5431 11.3472 13.5431H16.7076C16.9756 13.5431 17.1923 13.7598 17.1923 14.0278C17.1923 14.2959 16.9751 14.5126 16.7076 14.5126Z" fill="black"/>
<path d="M14.0274 17.1928C13.7593 17.1928 13.5426 16.9761 13.5426 16.708V11.3477C13.5426 11.0796 13.7593 10.8629 14.0274 10.8629C14.2954 10.8629 14.5121 11.0796 14.5121 11.3477V16.708C14.5121 16.9761 14.2954 17.1928 14.0274 17.1928Z" fill="black"/>
</svg>
