<svg width="16" height="16" viewBox="0 0 16 16" fill="none" xmlns="http://www.w3.org/2000/svg">
<g clip-path="url(#clip0_497_155)">
<path d="M14.6365 15.8942C14.9512 15.8942 15.2657 15.774 15.5058 15.5341C15.986 15.054 15.986 14.2756 15.5058 13.7954L9.70124 7.99104L15.5056 2.18663C15.9858 1.70665 15.9858 0.928101 15.5056 0.448118C15.0257 -0.0318648 14.2471 -0.0318648 13.7671 0.448118L7.09339 7.12187C6.6134 7.60185 6.6134 8.3804 7.09339 8.86056L13.7671 15.5343C14.0072 15.774 14.3218 15.8942 14.6365 15.8942Z" fill="#6C7783"/>
<path d="M8.01929 15.8942C8.33401 15.8942 8.64856 15.774 8.88864 15.5341C9.36879 15.054 9.36879 14.2756 8.88864 13.7954L3.08423 7.99104L8.88864 2.18663C9.36879 1.70665 9.36879 0.928102 8.88864 0.448119C8.40865 -0.0316883 7.63011 -0.0318639 7.14995 0.448119L0.476198 7.12187C-0.00378484 7.60185 -0.00378484 8.3804 0.476198 8.86056L7.14995 15.5343C7.39003 15.774 7.70475 15.8942 8.01929 15.8942Z" fill="#6C7783"/>
</g>
<defs>
<clipPath id="clip0_497_155">
<rect width="16" height="16" fill="white"/>
</clipPath>
</defs>
</svg>
