<svg width="21" height="21" viewBox="0 0 21 21" fill="none" xmlns="http://www.w3.org/2000/svg">
<g clip-path="url(#clip0_441_109)">
<path d="M19.7871 21.0339C13.7195 20.4724 9.09985 20.2511 1.03162 20.2511V19.3353H20.2633V20.6019C20.2636 20.8576 20.0418 21.0574 19.7871 21.0339Z" fill="#8C4A33"/>
<path d="M19.4354 20.5194C14.8626 20.0962 10.5169 19.6506 4.43652 19.6506L5.30093 19.2394H19.7943V20.1939C19.7943 20.3866 19.6272 20.5371 19.4354 20.5194Z" fill="#653626"/>
<path d="M20.8359 0.492188H1.06641V19.6875H20.8359V0.492188Z" fill="#E3EFE7"/>
<path d="M0.0820312 0.650786V19.9336H0.738281V0.650786V0C0.375776 0.000499451 0.0820312 0.29168 0.0820312 0.650786Z" fill="#A3583E"/>
<path d="M0.723667 19.6554L0.713755 19.6506C0.383207 19.6506 0.115356 19.785 0.115356 19.9507C0.115356 20.1146 0.377213 20.2472 0.702229 20.2504V20.2511H1.52745V19.6554H0.723667Z" fill="#8C4A33"/>
<path d="M6.26258 15.4462C6.1252 15.1589 5.78543 15.0259 5.50468 14.9423C5.16767 14.8418 5.09506 14.7551 5.07939 14.7226C5.06925 14.7014 5.07386 14.6668 5.08976 14.6276C5.14001 14.5154 5.28685 14.437 5.44705 14.437C5.56207 14.437 5.67041 14.4776 5.74095 14.5421C5.79304 14.5898 5.86934 14.5988 5.93365 14.57L6.10215 14.4944C6.21349 14.4444 6.24852 14.2994 6.16785 14.2079C6.04452 14.0684 5.87234 13.9695 5.67733 13.925V13.7259C5.67733 13.6247 5.59526 13.5426 5.49407 13.5426H5.32119C5.22 13.5426 5.13794 13.6247 5.13794 13.7259V13.9465C4.89498 14.0235 4.69513 14.1885 4.59394 14.4153C4.49482 14.6571 4.53862 14.8427 4.59256 14.9556C4.72994 15.2431 5.06971 15.3758 5.35024 15.4595C5.68747 15.56 5.76008 15.6465 5.77552 15.6792C5.78543 15.7002 5.78105 15.735 5.76492 15.7742C5.71467 15.8864 5.5676 15.9648 5.4074 15.9648C5.29238 15.9648 5.18404 15.9242 5.1135 15.8599C5.06141 15.8124 4.98511 15.8034 4.9208 15.8323L4.7523 15.9079C4.63981 15.9583 4.60662 16.1045 4.68845 16.1969C4.80301 16.3262 4.95976 16.421 5.13771 16.4689V16.6761C5.13771 16.7773 5.21977 16.8594 5.32096 16.8594H5.49384C5.59503 16.8594 5.6771 16.7773 5.6771 16.6761V16.4689C5.93803 16.3981 6.15356 16.226 6.26051 15.9869C6.36009 15.7449 6.31652 15.5593 6.26258 15.4462Z" fill="#AEC0B5"/>
<path d="M12.3788 13.8628H8.83156C8.76794 13.8628 8.71631 13.8112 8.71631 13.7475C8.71631 13.6839 8.76794 13.6323 8.83156 13.6323H12.3788C12.4425 13.6323 12.4941 13.6839 12.4941 13.7475C12.4941 13.8112 12.4427 13.8628 12.3788 13.8628Z" fill="#AEC0B5"/>
<path d="M18.7213 15.2415H8.83156C8.76794 15.2415 8.71631 15.1898 8.71631 15.1262C8.71631 15.0626 8.76794 15.011 8.83156 15.011H18.7213C18.7849 15.011 18.8365 15.0626 18.8365 15.1262C18.8365 15.1898 18.7849 15.2415 18.7213 15.2415Z" fill="#AEC0B5"/>
<path d="M18.7213 16.6204H8.83156C8.76794 16.6204 8.71631 16.5687 8.71631 16.5051C8.71631 16.4415 8.76794 16.3898 8.83156 16.3898H18.7213C18.7849 16.3898 18.8365 16.4415 18.8365 16.5051C18.8365 16.5687 18.7849 16.6204 18.7213 16.6204Z" fill="#AEC0B5"/>
<path d="M13.4818 17.999H12.7322C12.6686 17.999 12.6169 17.9474 12.6169 17.8838C12.6169 17.8201 12.6686 17.7685 12.7322 17.7685H13.4818C13.5454 17.7685 13.5971 17.8201 13.5971 17.8838C13.5971 17.9474 13.5457 17.999 13.4818 17.999Z" fill="#AEC0B5"/>
<path d="M12.1154 17.999H8.83156C8.76794 17.999 8.71631 17.9474 8.71631 17.8838C8.71631 17.8201 8.76794 17.7685 8.83156 17.7685H12.1154C12.179 17.7685 12.2306 17.8201 12.2306 17.8838C12.2306 17.9474 12.179 17.999 12.1154 17.999Z" fill="#AEC0B5"/>
<path d="M1.3125 0.650784V19.9336H0.738281V0.650784V0C1.05535 0 1.3125 0.291179 1.3125 0.650784Z" fill="#8C4A33"/>
<path d="M7.56645 6.47779H4.82375C4.75574 6.47779 4.70056 6.53292 4.70056 6.60098V6.76024C5.73136 6.8227 6.72973 6.82645 7.68958 6.76024V6.60098C7.68963 6.53292 7.6345 6.47779 7.56645 6.47779Z" fill="#D38700"/>
<path d="M7.68963 6.76023C7.68963 6.83058 7.6326 6.88766 7.56221 6.88766H4.82799C4.75764 6.88766 4.70056 6.83063 4.70056 6.76023H7.68963Z" fill="#E8B436"/>
<path d="M7.56645 6.06792H4.82375C4.75574 6.06792 4.70056 6.12305 4.70056 6.1911V6.35036C5.73136 6.41283 6.72973 6.41657 7.68958 6.35036V6.1911C7.68963 6.12305 7.6345 6.06792 7.56645 6.06792Z" fill="#D38700"/>
<path d="M7.68963 6.35036C7.68963 6.42071 7.6326 6.47779 7.56221 6.47779H4.82799C4.75764 6.47779 4.70056 6.42076 4.70056 6.35036H7.68963Z" fill="#E8B436"/>
<path d="M7.56645 5.65804H4.82375C4.75574 5.65804 4.70056 5.71318 4.70056 5.78123V5.94049C5.73136 6.00296 6.72973 6.0067 7.68958 5.94049V5.78123C7.68963 5.71323 7.6345 5.65804 7.56645 5.65804Z" fill="#D38700"/>
<path d="M7.68963 5.94049C7.68963 6.01084 7.6326 6.06792 7.56221 6.06792H4.82799C4.75764 6.06792 4.70056 6.01089 4.70056 5.94049H7.68963Z" fill="#E8B436"/>
<path d="M7.56645 5.24821H4.82375C4.75574 5.24821 4.70056 5.30335 4.70056 5.3714V5.53066C5.73136 5.59313 6.72973 5.59687 7.68958 5.53066V5.3714C7.68963 5.30335 7.6345 5.24821 7.56645 5.24821Z" fill="#D38700"/>
<path d="M7.68963 5.53066C7.68963 5.60101 7.6326 5.65809 7.56221 5.65809H4.82799C4.75764 5.65809 4.70056 5.60106 4.70056 5.53066H7.68963Z" fill="#E8B436"/>
<path d="M7.56645 4.83833H4.82375C4.75574 4.83833 4.70056 4.89347 4.70056 4.96152V5.12078C5.73136 5.18325 6.72973 5.18699 7.68958 5.12078V4.96152C7.68963 4.89347 7.6345 4.83833 7.56645 4.83833Z" fill="#D38700"/>
<path d="M7.68963 5.12079C7.68963 5.19114 7.6326 5.24822 7.56221 5.24822H4.82799C4.75764 5.24822 4.70056 5.19119 4.70056 5.12079H7.68963Z" fill="#E8B436"/>
<path d="M7.56645 4.42847H4.82375C4.75574 4.42847 4.70056 4.4836 4.70056 4.55165V4.71091C5.73136 4.77338 6.72973 4.77712 7.68958 4.71091V4.55165C7.68963 4.48365 7.6345 4.42847 7.56645 4.42847Z" fill="#D38700"/>
<path d="M7.68963 4.71091C7.68963 4.78126 7.6326 4.83834 7.56221 4.83834H4.82799C4.75764 4.83834 4.70056 4.78131 4.70056 4.71091H7.68963Z" fill="#E8B436"/>
<path d="M7.56645 4.01864H4.82375C4.75574 4.01864 4.70056 4.07377 4.70056 4.14183V4.30109C5.73136 4.36355 6.72973 4.36729 7.68958 4.30109V4.14183C7.68963 4.07377 7.6345 4.01864 7.56645 4.01864Z" fill="#D38700"/>
<path d="M7.68963 4.30109C7.68963 4.37144 7.6326 4.42851 7.56221 4.42851H4.82799C4.75764 4.42851 4.70056 4.37149 4.70056 4.30109H7.68963Z" fill="#E8B436"/>
<path d="M7.56645 3.60876H4.82375C4.75574 3.60876 4.70056 3.6639 4.70056 3.73195V3.89121C5.73136 3.95368 6.72973 3.95742 7.68958 3.89121V3.73195C7.68963 3.6639 7.6345 3.60876 7.56645 3.60876Z" fill="#D38700"/>
<path d="M7.68963 3.89121C7.68963 3.96156 7.6326 4.01864 7.56221 4.01864H4.82799C4.75764 4.01864 4.70056 3.96161 4.70056 3.89121H7.68963Z" fill="#E8B436"/>
<path d="M7.56645 3.19888H4.82375C4.75574 3.19888 4.70056 3.25402 4.70056 3.32207V3.48133C5.73136 3.5438 6.72973 3.54754 7.68958 3.48133V3.32207C7.68963 3.25407 7.6345 3.19888 7.56645 3.19888Z" fill="#D38700"/>
<path d="M7.68963 3.48134C7.68963 3.55169 7.6326 3.60877 7.56221 3.60877H4.82799C4.75764 3.60877 4.70056 3.55174 4.70056 3.48134H7.68963Z" fill="#E8B436"/>
<path d="M7.56645 2.78906H4.82375C4.75574 2.78906 4.70056 2.84419 4.70056 2.91225V3.07151C5.73136 3.13398 6.72973 3.13772 7.68958 3.07151V2.9122C7.68963 2.84419 7.6345 2.78906 7.56645 2.78906Z" fill="#D38700"/>
<path d="M7.68963 3.07146C7.68963 3.14181 7.6326 3.19888 7.56221 3.19888H4.82799C4.75764 3.19888 4.70056 3.14186 4.70056 3.07146H7.68963Z" fill="#E8B436"/>
<path d="M4.79965 6.89246C5.68355 6.89246 6.40009 6.17592 6.40009 5.29202C6.40009 4.40813 5.68355 3.69159 4.79965 3.69159C3.91576 3.69159 3.19922 4.40813 3.19922 5.29202C3.19922 6.17592 3.91576 6.89246 4.79965 6.89246Z" fill="#FFC843"/>
<path d="M4.79968 6.53632C5.48713 6.53632 6.04442 5.97903 6.04442 5.29157C6.04442 4.60412 5.48713 4.04683 4.79968 4.04683C4.11222 4.04683 3.55493 4.60412 3.55493 5.29157C3.55493 5.97903 4.11222 6.53632 4.79968 6.53632Z" fill="#D38700"/>
<path d="M4.96789 5.1578H4.63136C4.60706 5.1578 4.5865 5.13725 4.5865 5.11295V4.85185C4.5865 4.82756 4.60706 4.807 4.63136 4.807H4.96789C4.99219 4.807 5.01274 4.82756 5.01274 4.85185C5.01274 4.92071 5.06858 4.97659 5.13748 4.97659C5.20638 4.97659 5.26221 4.92076 5.26221 4.85185C5.26221 4.68955 5.13019 4.55753 4.96789 4.55753H4.92438V4.47221C4.92438 4.40331 4.86855 4.34748 4.79965 4.34748C4.73075 4.34748 4.67492 4.40331 4.67492 4.47221V4.55753H4.63136C4.46905 4.55753 4.33704 4.68955 4.33704 4.85185V5.11295C4.33704 5.27525 4.46905 5.40727 4.63136 5.40727H4.96789C4.99219 5.40727 5.01274 5.42783 5.01274 5.45212V5.71317C5.01274 5.73746 4.99219 5.75802 4.96789 5.75802H4.63136C4.60706 5.75802 4.5865 5.73746 4.5865 5.71317C4.5865 5.64426 4.53067 5.58843 4.46177 5.58843C4.39287 5.58843 4.33704 5.64426 4.33704 5.71317C4.33704 5.87547 4.46905 6.00749 4.63136 6.00749H4.67492V6.11137C4.67492 6.18027 4.73075 6.2361 4.79965 6.2361C4.86855 6.2361 4.92438 6.18027 4.92438 6.11137V6.00749H4.96789C5.13019 6.00749 5.26221 5.87547 5.26221 5.71317V5.45212C5.26221 5.28987 5.13019 5.1578 4.96789 5.1578Z" fill="#FFC843"/>
<path d="M12.3579 8.51566H8.81057C8.74695 8.51566 8.69531 8.46403 8.69531 8.40041C8.69531 8.33679 8.74695 8.28516 8.81057 8.28516H12.3579C12.4215 8.28516 12.4731 8.33679 12.4731 8.40041C12.4731 8.46403 12.4217 8.51566 12.3579 8.51566Z" fill="#AEC0B5"/>
<path d="M18.7003 9.89433H8.81057C8.74695 9.89433 8.69531 9.8427 8.69531 9.77908C8.69531 9.71546 8.74695 9.66383 8.81057 9.66383H18.7003C18.7639 9.66383 18.8155 9.71546 18.8155 9.77908C18.8155 9.8427 18.7639 9.89433 18.7003 9.89433Z" fill="#AEC0B5"/>
<path d="M18.7003 11.2732H8.81057C8.74695 11.2732 8.69531 11.2216 8.69531 11.158C8.69531 11.0944 8.74695 11.0427 8.81057 11.0427H18.7003C18.7639 11.0427 18.8155 11.0944 18.8155 11.158C18.8155 11.2216 18.7639 11.2732 18.7003 11.2732Z" fill="#AEC0B5"/>
<path d="M13.4608 12.6519H12.7112C12.6476 12.6519 12.5959 12.6003 12.5959 12.5366C12.5959 12.473 12.6476 12.4214 12.7112 12.4214H13.4608C13.5244 12.4214 13.5761 12.473 13.5761 12.5366C13.5761 12.6003 13.5247 12.6519 13.4608 12.6519Z" fill="#AEC0B5"/>
<path d="M12.0944 12.6519H8.81057C8.74695 12.6519 8.69531 12.6003 8.69531 12.5366C8.69531 12.473 8.74695 12.4214 8.81057 12.4214H12.0944C12.158 12.4214 12.2096 12.473 12.2096 12.5366C12.2096 12.6003 12.158 12.6519 12.0944 12.6519Z" fill="#AEC0B5"/>
<path d="M12.3579 3.01957H8.81057C8.74695 3.01957 8.69531 2.96794 8.69531 2.90432C8.69531 2.8407 8.74695 2.78906 8.81057 2.78906H12.3579C12.4215 2.78906 12.4731 2.8407 12.4731 2.90432C12.4731 2.96794 12.4217 3.01957 12.3579 3.01957Z" fill="#AEC0B5"/>
<path d="M18.7003 4.39824H8.81057C8.74695 4.39824 8.69531 4.34661 8.69531 4.28299C8.69531 4.21937 8.74695 4.16773 8.81057 4.16773H18.7003C18.7639 4.16773 18.8155 4.21937 18.8155 4.28299C18.8155 4.34661 18.7639 4.39824 18.7003 4.39824Z" fill="#AEC0B5"/>
<path d="M18.7003 5.77714H8.81057C8.74695 5.77714 8.69531 5.7255 8.69531 5.66188C8.69531 5.59826 8.74695 5.54663 8.81057 5.54663H18.7003C18.7639 5.54663 18.8155 5.59826 18.8155 5.66188C18.8155 5.7255 18.7639 5.77714 18.7003 5.77714Z" fill="#AEC0B5"/>
<path d="M13.4608 7.1558H12.7112C12.6476 7.1558 12.5959 7.10417 12.5959 7.04055C12.5959 6.97693 12.6476 6.92529 12.7112 6.92529H13.4608C13.5244 6.92529 13.5761 6.97693 13.5761 7.04055C13.5761 7.10417 13.5247 7.1558 13.4608 7.1558Z" fill="#AEC0B5"/>
<path d="M12.0944 7.1558H8.81057C8.74695 7.1558 8.69531 7.10417 8.69531 7.04055C8.69531 6.97693 8.74695 6.92529 8.81057 6.92529H12.0944C12.158 6.92529 12.2096 6.97693 12.2096 7.04055C12.2096 7.10417 12.158 7.1558 12.0944 7.1558Z" fill="#AEC0B5"/>
</g>
<defs>
<clipPath id="clip0_441_109">
<rect width="21" height="21" fill="white"/>
</clipPath>
</defs>
</svg>
