<svg width="16" height="16" viewBox="0 0 16 16" fill="none" xmlns="http://www.w3.org/2000/svg">
<g clip-path="url(#clip0_424_171)">
<path d="M5.09321 11.5914C4.91337 11.5914 4.73371 11.5227 4.59637 11.3855C4.32204 11.1112 4.32204 10.6663 4.59637 10.3922L10.392 4.59656C10.6661 4.32223 11.1114 4.32223 11.3853 4.59656C11.6598 4.87106 11.6598 5.31574 11.3853 5.59007L5.5897 11.3857C5.45272 11.5227 5.27305 11.5914 5.09321 11.5914Z" fill="#EC0000"/>
<path d="M10.8888 11.5914C10.7091 11.5914 10.5291 11.5227 10.3921 11.3855L4.59649 5.5899C4.32217 5.31539 4.32217 4.87071 4.59649 4.59638C4.87099 4.32206 5.31568 4.32206 5.59 4.59638L11.3856 10.392C11.6601 10.6663 11.6601 11.1112 11.3856 11.3853C11.2485 11.5227 11.0684 11.5914 10.8888 11.5914Z" fill="#EC0000"/>
<path d="M7.99102 15.8942C3.63323 15.8942 0.0878906 12.3488 0.0878906 7.99104C0.0878906 3.63326 3.63323 0.0879135 7.99102 0.0879135C12.3488 0.0879135 15.8941 3.63326 15.8941 7.99104C15.8941 12.3488 12.3488 15.8942 7.99102 15.8942ZM7.99102 1.49291C4.40791 1.49291 1.49289 4.40794 1.49289 7.99104C1.49289 11.5741 4.40791 14.4892 7.99102 14.4892C11.5741 14.4892 14.4891 11.5741 14.4891 7.99104C14.4891 4.40794 11.5741 1.49291 7.99102 1.49291Z" fill="white"/>
</g>
<defs>
<clipPath id="clip0_424_171">
<rect width="16" height="16" fill="white"/>
</clipPath>
</defs>
</svg>
