<svg width="21" height="21" viewBox="0 0 21 21" fill="none" xmlns="http://www.w3.org/2000/svg">
<g clip-path="url(#clip0_442_413)">
<path d="M4.45506 5.03504C5.4287 5.03504 6.21799 4.24575 6.21799 3.27212C6.21799 2.29848 5.4287 1.50919 4.45506 1.50919C3.48143 1.50919 2.69214 2.29848 2.69214 3.27212C2.69214 4.24575 3.48143 5.03504 4.45506 5.03504Z" fill="#FFEC80"/>
<path d="M9.29137 3.75635C10.265 3.75635 11.0543 2.96707 11.0543 1.99343C11.0543 1.01979 10.265 0.230507 9.29137 0.230507C8.31773 0.230507 7.52844 1.01979 7.52844 1.99343C7.52844 2.96707 8.31773 3.75635 9.29137 3.75635Z" fill="#FFEC80"/>
<path d="M4.45437 5.26601C3.35508 5.26601 2.46094 4.37164 2.46094 3.27258C2.46094 2.17351 3.35508 1.27914 4.45437 1.27914C5.55366 1.27914 6.4478 2.17328 6.4478 3.27258C6.4478 4.37187 5.55343 5.26601 4.45437 5.26601ZM4.45437 1.74016C3.60933 1.74016 2.92195 2.42753 2.92195 3.27258C2.92195 4.11762 3.60933 4.80499 4.45437 4.80499C5.29941 4.80499 5.98678 4.11762 5.98678 3.27258C5.98678 2.42753 5.29918 1.74016 4.45437 1.74016Z" fill="white"/>
<path d="M20.6835 8.93126V20.7108H2.04401C1.0901 20.7108 0.31665 20.0461 0.31665 19.2264V7.73357L20.6835 8.14441V8.93126Z" fill="#D1A184"/>
<path d="M6.85442 6.53588H1.71032C0.940666 6.53588 0.31665 7.07215 0.31665 7.73356C0.31665 8.39498 0.940666 8.93125 1.71032 8.93125H20.6831V6.53588H17.7112" fill="#C68A65"/>
<path d="M20.6834 15.2119H16.0937C15.8214 15.2119 15.6007 15.0222 15.6007 14.7883V13.3694C15.6007 13.1354 15.8214 12.9457 16.0937 12.9457H20.6834V15.2119Z" fill="#C68A65"/>
<path d="M20.6834 15.484H16.0937C15.6473 15.484 15.2838 15.1721 15.2838 14.7882V13.3694C15.2838 12.9857 15.647 12.6734 16.0937 12.6734H20.6834C20.8585 12.6734 21 12.795 21 12.9455V15.2116C21 15.3623 20.8585 15.484 20.6834 15.484ZM16.0937 13.2178C15.9962 13.2178 15.917 13.2858 15.917 13.3696V14.7885C15.917 14.872 15.9962 14.9401 16.0937 14.9401H20.3668V13.2178H16.0937Z" fill="white"/>
<path d="M20.6834 20.9829H2.04396C0.91687 20.9829 0 20.195 0 19.2264V7.73357C0 7.58338 0.141836 7.46149 0.316599 7.46149C0.491361 7.46149 0.633198 7.58338 0.633198 7.73357V19.2264C0.633198 19.8949 1.26608 20.4388 2.04396 20.4388H20.3668V8.93125C20.3668 8.78107 20.5083 8.65918 20.6834 8.65918C20.8585 8.65918 21 8.78107 21 8.93125V20.7108C21 20.8613 20.8585 20.9829 20.6834 20.9829Z" fill="white"/>
<path d="M20.6834 9.20332H1.71027C0.767119 9.20332 0 8.54408 0 7.73356C0 6.92304 0.767119 6.2638 1.71027 6.2638H6.85436C7.02913 6.2638 7.17096 6.38569 7.17096 6.53588C7.17096 6.68607 7.02913 6.80796 6.85436 6.80796H1.71027C1.11633 6.80796 0.633198 7.22315 0.633198 7.73356C0.633198 8.24398 1.11633 8.65917 1.71027 8.65917H20.3668V6.80796H17.7112C17.5361 6.80796 17.3946 6.68607 17.3946 6.53588C17.3946 6.38569 17.5361 6.2638 17.7112 6.2638H20.6834C20.8585 6.2638 21 6.38569 21 6.53588V8.93125C21 9.0817 20.8585 9.20332 20.6834 9.20332Z" fill="white"/>
<path d="M20.6834 8.00565H2.03291C1.85814 8.00565 1.71631 7.88376 1.71631 7.73357C1.71631 7.58338 1.85814 7.46149 2.03291 7.46149H20.6834C20.8585 7.46149 21 7.58338 21 7.73357C21 7.88376 20.8585 8.00565 20.6834 8.00565Z" fill="white"/>
<path d="M18.4279 14.351H16.9947C16.8196 14.351 16.6781 14.2294 16.6781 14.079C16.6781 13.9285 16.8196 13.8069 16.9947 13.8069H18.4279C18.603 13.8069 18.7445 13.9285 18.7445 14.079C18.7445 14.2294 18.603 14.351 18.4279 14.351Z" fill="white"/>
<path d="M18.3168 7.73274L15.8853 3.06118L3.7406 7.73274H18.3168Z" fill="#9DD184"/>
<path d="M16.6072 7.73274L15.0971 4.83512L7.56519 7.73274H16.6072Z" fill="#7FBF60"/>
<path d="M18.3184 8.00565H3.74186C3.59243 8.00565 3.46357 7.91586 3.43223 7.79044C3.40089 7.66501 3.47624 7.53768 3.61237 7.48517L15.7549 2.81279C15.8309 2.7834 15.9186 2.78123 15.9971 2.8068C16.0756 2.83265 16.1389 2.88407 16.1734 2.94991L18.6078 7.62229C18.6514 7.70664 18.6426 7.80404 18.5843 7.88158C18.5261 7.95885 18.4257 8.00565 18.3184 8.00565ZM5.22355 7.4615H17.8299L15.7245 3.42061L5.22355 7.4615Z" fill="white"/>
<path d="M16.6062 8.00564H7.56571C7.41628 8.00564 7.28743 7.91586 7.25608 7.79043C7.22474 7.665 7.30009 7.53767 7.43623 7.48516L14.9668 4.58754C15.1264 4.52578 15.3138 4.58781 15.3851 4.72467L16.8952 7.62256C16.9389 7.7069 16.9301 7.80431 16.8718 7.88185C16.8136 7.95885 16.7135 8.00564 16.6062 8.00564ZM9.0474 7.46149H16.1174L14.9368 5.19509L9.0474 7.46149Z" fill="white"/>
<path d="M9.2914 3.98686C8.19211 3.98686 7.29797 3.09249 7.29797 1.99343C7.29797 0.89437 8.19211 0 9.2914 0C10.3907 0 11.2846 0.89414 11.2846 1.99343C11.2846 3.09272 10.3905 3.98686 9.2914 3.98686ZM9.2914 0.461016C8.44636 0.461016 7.75899 1.14839 7.75899 1.99343C7.75899 2.83847 8.44636 3.52585 9.2914 3.52585C10.1362 3.52585 10.8236 2.83847 10.8236 1.99343C10.8236 1.14839 10.1362 0.461016 9.2914 0.461016Z" fill="white"/>
</g>
<defs>
<clipPath id="clip0_442_413">
<rect width="21" height="21" fill="white"/>
</clipPath>
</defs>
</svg>
