<svg width="20" height="21" viewBox="0 0 20 21" fill="none" xmlns="http://www.w3.org/2000/svg">
<path d="M12.7724 14.9338C12.4084 14.2996 11.8577 13.6388 10.8003 13.8203L7.66123 14.389C6.57109 14.4781 5.80763 13.5296 4.74713 13.6239L4.01306 13.689V19.9689L5.49869 19.8371C6.98643 19.705 8.3736 20.8803 9.75376 20.7578C11.2618 20.6262 15.2798 18.0122 19.4525 15.4089C19.7232 15.2399 19.8223 14.8834 19.6578 14.6099C18.8078 13.1992 17.465 12.7696 16.3653 13.2638L12.7724 14.9338Z" fill="#F9C295"/>
<path d="M3.4548 20.7667H0.791998C0.483532 20.7667 0.233398 20.5165 0.233398 20.2081V13.0503C0.233398 12.7419 0.483532 12.4917 0.791998 12.4917H3.4548C3.76327 12.4917 4.0134 12.7419 4.0134 13.0503V20.2083C4.0134 20.5165 3.76327 20.7667 3.4548 20.7667Z" fill="#6AACDA"/>
<path d="M9.55013 21C8.89703 21 8.25163 20.7601 7.62513 20.5273C6.93656 20.2715 6.22606 20.0062 5.51953 20.0695L3.78003 20.2239V13.4752L4.72666 13.3912C5.31676 13.3408 5.81026 13.5686 6.28673 13.7905C6.73403 13.9991 7.15683 14.1979 7.6424 14.1561L10.759 13.5905C11.8748 13.3996 12.4901 14.0439 12.8642 14.634L16.2666 13.052C17.5502 12.4759 18.9927 13.0534 19.8576 14.4895C20.0849 14.8671 19.9584 15.3683 19.576 15.6067C19.1348 15.8818 18.6956 16.1572 18.2607 16.4295C14.4606 18.8109 11.1786 20.8677 9.77413 20.9902C9.69946 20.9967 9.6248 21 9.55013 21ZM5.73723 19.5932C6.4517 19.5932 7.12976 19.8452 7.78776 20.0898C8.467 20.3425 9.10983 20.5802 9.7333 20.5254C11.0262 20.4125 14.42 18.2856 18.0129 16.0342C18.4481 15.7617 18.8877 15.4861 19.3291 15.2108C19.4969 15.1062 19.5545 14.8906 19.4582 14.7301C18.7208 13.5063 17.5157 13.0034 16.461 13.4764L12.6766 15.2357L12.5702 15.05C12.2351 14.466 11.768 13.8915 10.84 14.0502L7.70306 14.6183C7.07306 14.6697 6.57256 14.4384 6.08956 14.2135C5.6495 14.0082 5.23416 13.8143 4.76773 13.856L4.24646 13.9022V19.7139L5.478 19.6044C5.56503 19.5967 5.65136 19.5932 5.73723 19.5932Z" fill="white"/>
<path d="M8.67574 17.7275C8.56677 17.7275 8.46924 17.651 8.4473 17.5399C8.4221 17.4134 8.504 17.2907 8.63047 17.2653C9.86107 17.0191 11.2452 16.4568 12.8559 15.5479L12.5701 15.05C12.5059 14.9382 12.5446 14.7954 12.6562 14.7315C12.7679 14.6676 12.9107 14.7061 12.9747 14.8176L13.3769 15.5185C13.4409 15.6303 13.4026 15.7729 13.2911 15.837C11.5488 16.8397 10.054 17.4564 8.7217 17.7228C8.7063 17.7261 8.6909 17.7275 8.67574 17.7275Z" fill="black"/>
<path d="M3.45473 21H0.791933C0.355367 21 0 20.6449 0 20.2081V13.0503C0 12.6138 0.355133 12.2584 0.791933 12.2584H3.45473C3.8913 12.2584 4.24667 12.6135 4.24667 13.0503V20.2083C4.24667 20.6449 3.8913 21 3.45473 21ZM0.791933 12.7251C0.6125 12.7251 0.466667 12.8709 0.466667 13.0503V20.2083C0.4669 20.3875 0.612733 20.5333 0.791933 20.5333H3.45473C3.63417 20.5333 3.78 20.3875 3.78 20.2081V13.0503C3.78 12.8709 3.63417 12.7251 3.45473 12.7251H0.791933Z" fill="white"/>
<path d="M10.4666 6.89593C9.63988 6.55363 9.63988 5.38276 10.4666 5.04023C10.5839 4.9917 10.6397 4.85706 10.5909 4.7397L10.1576 3.6939C10.1091 3.57653 9.97448 3.52076 9.85711 3.56953C9.03041 3.91183 8.20254 3.08396 8.54508 2.2575C8.59361 2.14013 8.53784 2.00573 8.42071 1.95696L7.37491 1.52366C7.25754 1.47513 7.12314 1.5309 7.07438 1.64803C6.73208 2.47473 5.56121 2.47473 5.21868 1.64803C5.17014 1.53066 5.03551 1.4749 4.91814 1.52366L3.87234 1.95696C3.75498 2.0055 3.69921 2.14013 3.74798 2.2575C4.09028 3.0842 3.26241 3.91206 2.43571 3.56976C2.31834 3.52123 2.18394 3.577 2.13518 3.69413L1.70234 4.73993C1.65381 4.8573 1.70958 4.9917 1.82671 5.04046C2.65341 5.38276 2.65341 6.55363 1.82671 6.89616C1.70934 6.9447 1.65358 7.07933 1.70234 7.1967L2.13564 8.2425C2.18418 8.35986 2.31881 8.41563 2.43618 8.36686C3.26288 8.02456 4.09074 8.85243 3.74821 9.67913C3.69968 9.7965 3.75544 9.9309 3.87258 9.97966L4.91838 10.413C5.03574 10.4615 5.17014 10.4057 5.21891 10.2886C5.56121 9.4619 6.73208 9.4619 7.07461 10.2886C7.12314 10.406 7.25778 10.4617 7.37514 10.413L8.42094 9.97966C8.53831 9.93113 8.59408 9.7965 8.54531 9.67913C8.20301 8.85243 9.03088 8.02456 9.85758 8.3671C9.97494 8.41563 10.1093 8.35986 10.1581 8.24273L10.5914 7.19693C10.6397 7.0791 10.5839 6.9447 10.4666 6.89593ZM6.14688 7.48393C5.30968 7.48393 4.63091 6.80516 4.63091 5.96796C4.63091 5.13076 5.30968 4.452 6.14688 4.452C6.98408 4.452 7.66284 5.13076 7.66284 5.96796C7.66261 6.8054 6.98408 7.48393 6.14688 7.48393Z" fill="#FFD77D"/>
<path d="M7.28703 10.6636C7.22683 10.6636 7.16686 10.6517 7.1097 10.6281C6.99536 10.5807 6.90623 10.4918 6.8591 10.3773C6.71373 10.0263 6.39593 9.90126 6.14696 9.90126C5.898 9.90126 5.57996 10.0263 5.4346 10.3773C5.3366 10.6134 5.065 10.7254 4.8291 10.6279L3.78353 10.1948C3.6692 10.1474 3.58006 10.0583 3.5327 9.94396C3.48533 9.82963 3.48533 9.70363 3.5327 9.58929C3.67806 9.23859 3.5418 8.92523 3.36563 8.74929C3.18946 8.57313 2.8761 8.43663 2.5254 8.58223C2.2888 8.67976 2.0179 8.56729 1.92013 8.33139L1.48706 7.28583C1.4397 7.17149 1.4397 7.04549 1.48706 6.93116C1.53443 6.81683 1.62333 6.72769 1.7379 6.68056C2.08883 6.53519 2.2139 6.21739 2.2139 5.96819C2.2139 5.71899 2.08883 5.40119 1.7379 5.25583C1.62356 5.20846 1.53466 5.11956 1.4873 5.00523C1.43993 4.89089 1.43993 4.76489 1.4873 4.65056L1.92036 3.60499C2.0179 3.36909 2.28973 3.25663 2.52563 3.35416C2.8768 3.49929 3.1897 3.36326 3.36586 3.18709C3.54203 3.01116 3.6783 2.69779 3.53293 2.34686C3.4354 2.11073 3.54786 1.83936 3.78376 1.74159L4.82956 1.30853C4.9439 1.26116 5.06966 1.26116 5.18423 1.30853C5.29856 1.35589 5.3877 1.44503 5.43506 1.55936C5.58043 1.91006 5.89823 2.03536 6.1472 2.03536C6.39616 2.03536 6.7142 1.91029 6.85956 1.55936C6.90693 1.44503 6.99583 1.35589 7.11016 1.30853C7.2245 1.26139 7.3505 1.26116 7.46483 1.30853L8.51063 1.74183C8.62496 1.78919 8.7141 1.87809 8.76146 1.99243C8.80883 2.10676 8.80883 2.23276 8.76146 2.34709C8.6161 2.69779 8.75236 3.01093 8.92853 3.18709C9.1047 3.36303 9.41806 3.49953 9.76876 3.35416C10.0047 3.25616 10.2763 3.36886 10.374 3.60499L10.8071 4.65056C10.8545 4.76489 10.8545 4.89089 10.8071 5.00523C10.7597 5.11956 10.6706 5.20869 10.5563 5.25606C10.2056 5.40143 10.0805 5.71923 10.0805 5.96819C10.0805 6.21716 10.2056 6.53519 10.5565 6.68056C10.6708 6.72793 10.76 6.81706 10.8071 6.93139C10.8545 7.04573 10.8542 7.17173 10.8069 7.28606L10.3738 8.33163C10.3267 8.44596 10.2375 8.53509 10.1232 8.58246C10.0086 8.62983 9.88286 8.62983 9.76853 8.58246C9.4176 8.43709 9.1047 8.57359 8.9283 8.74953C8.75236 8.92546 8.61586 9.23883 8.76123 9.58976C8.85876 9.82566 8.74653 10.0973 8.51063 10.195L7.46483 10.6281C7.4072 10.6517 7.347 10.6636 7.28703 10.6636ZM6.14673 9.43459C6.6568 9.43459 7.09476 9.72743 7.29006 10.1985L8.33143 9.76359C8.1345 9.29669 8.23716 8.77986 8.5979 8.41913C8.95863 8.05886 9.4757 7.95573 9.94656 8.15103L10.374 7.11013C9.9048 6.91436 9.61336 6.47709 9.61336 5.96796C9.61336 5.45789 9.9062 5.01969 10.3773 4.82463L9.94236 3.78349C9.475 3.97996 8.95863 3.87753 8.5979 3.51679C8.2374 3.15606 8.1345 2.63946 8.3298 2.16813L7.28563 1.73926C7.095 2.20873 6.6568 2.50156 6.14673 2.50156C5.63666 2.50156 5.1987 2.20873 5.0034 1.73763L3.96203 2.17256C4.15896 2.63946 4.05606 3.15629 3.69556 3.51703C3.33506 3.87753 2.81823 3.98043 2.34666 3.78513L1.91803 4.82906C2.3875 5.01969 2.68033 5.45789 2.68033 5.96796C2.68033 6.47803 2.3875 6.91623 1.9164 7.11129L2.35133 8.15243C2.81823 7.95596 3.33506 8.05839 3.6958 8.41889C4.0563 8.77963 4.1592 9.29646 3.9639 9.76779L5.00783 10.1964C5.19846 9.72743 5.63666 9.43459 6.14673 9.43459Z" fill="white"/>
<path d="M17.3773 2.0524C17.8796 2.0524 18.2868 1.64518 18.2868 1.14286C18.2868 0.640542 17.8796 0.23333 17.3773 0.23333C16.875 0.23333 16.4678 0.640542 16.4678 1.14286C16.4678 1.64518 16.875 2.0524 17.3773 2.0524Z" fill="#69D698"/>
<path d="M17.3773 11.7031C17.8796 11.7031 18.2868 11.2959 18.2868 10.7935C18.2868 10.2912 17.8796 9.884 17.3773 9.884C16.875 9.884 16.4678 10.2912 16.4678 10.7935C16.4678 11.2959 16.875 11.7031 17.3773 11.7031Z" fill="#69D698"/>
<path d="M17.3773 6.81707C17.8796 6.81707 18.2868 6.40986 18.2868 5.90753C18.2868 5.40521 17.8796 4.998 17.3773 4.998C16.875 4.998 16.4678 5.40521 16.4678 5.90753C16.4678 6.40986 16.875 6.81707 17.3773 6.81707Z" fill="#69D698"/>
<path d="M6.14676 7.7175C5.18216 7.7175 4.39746 6.9328 4.39746 5.9682C4.39746 5.0036 5.18216 4.2189 6.14676 4.2189C7.11136 4.2189 7.89606 5.0036 7.89606 5.9682C7.89606 6.9328 7.11136 7.7175 6.14676 7.7175ZM6.14676 4.68557C5.43953 4.68557 4.86413 5.26097 4.86413 5.9682C4.86413 6.67544 5.43953 7.25084 6.14676 7.25084C6.85399 7.25084 7.42939 6.67544 7.42939 5.9682C7.42939 5.26097 6.85423 4.68557 6.14676 4.68557Z" fill="white"/>
<path d="M14.8281 6.14086H9.85089C9.72209 6.14086 9.61755 6.03633 9.61755 5.90753C9.61755 5.77873 9.72209 5.67419 9.85089 5.67419H14.8281C14.9572 5.67419 15.0615 5.77873 15.0615 5.90753C15.0615 6.03633 14.9572 6.14086 14.8281 6.14086Z" fill="white"/>
<path d="M16.4672 11.0266H14.8281C14.699 11.0266 14.5947 10.9223 14.5947 10.7933V1.14286C14.5947 1.01406 14.699 0.909531 14.8281 0.909531H16.4672C16.5963 0.909531 16.7006 1.01406 16.7006 1.14286C16.7006 1.27166 16.5963 1.3762 16.4672 1.3762H15.0614V10.5597H16.4672C16.5963 10.5597 16.7006 10.6643 16.7006 10.7931C16.7006 10.9223 16.5963 11.0266 16.4672 11.0266Z" fill="white"/>
<path d="M17.377 2.28597C16.7468 2.28597 16.2341 1.77333 16.2341 1.1431C16.2341 0.512867 16.7468 0 17.377 0C18.0072 0 18.5199 0.512633 18.5199 1.14287C18.5199 1.7731 18.0072 2.28597 17.377 2.28597ZM17.377 0.466667C17.0039 0.466667 16.7008 0.77 16.7008 1.14287C16.7008 1.51573 17.0041 1.81907 17.377 1.81907C17.7499 1.81907 18.0532 1.51573 18.0532 1.14287C18.0532 0.77 17.7499 0.466667 17.377 0.466667Z" fill="white"/>
<path d="M17.377 11.9362C16.7468 11.9362 16.2341 11.4235 16.2341 10.7933C16.2341 10.1631 16.7468 9.65044 17.377 9.65044C18.0072 9.65044 18.5199 10.1631 18.5199 10.7933C18.5199 11.4235 18.0072 11.9362 17.377 11.9362ZM17.377 10.1169C17.0039 10.1169 16.7008 10.4202 16.7008 10.7931C16.7008 11.1662 17.0041 11.4693 17.377 11.4693C17.7499 11.4693 18.0532 11.1659 18.0532 10.7931C18.0532 10.4204 17.7499 10.1169 17.377 10.1169Z" fill="white"/>
<path d="M17.377 7.0504C16.7468 7.0504 16.2341 6.53776 16.2341 5.90753C16.2341 5.2773 16.7468 4.76466 17.377 4.76466C18.0072 4.76466 18.5199 5.2773 18.5199 5.90753C18.5199 6.53776 18.0072 7.0504 17.377 7.0504ZM17.377 5.2311C17.0039 5.2311 16.7008 5.53443 16.7008 5.9073C16.7008 6.28016 17.0041 6.5835 17.377 6.5835C17.7499 6.5835 18.0532 6.28016 18.0532 5.9073C18.0532 5.53443 17.7499 5.2311 17.377 5.2311Z" fill="white"/>
<path d="M16.4672 6.14086H14.8281C14.699 6.14086 14.5947 6.03633 14.5947 5.90753C14.5947 5.77873 14.699 5.67419 14.8281 5.67419H16.4672C16.5963 5.67419 16.7006 5.77873 16.7006 5.90753C16.7006 6.03633 16.5963 6.14086 16.4672 6.14086Z" fill="white"/>
</svg>
