<svg width="21" height="21" viewBox="0 0 21 21" fill="none" xmlns="http://www.w3.org/2000/svg">
<g clip-path="url(#clip0_584_86)">
<path d="M10.9795 9.76061H18.7399C18.4656 5.59974 15.1404 2.27448 10.9795 2.00024V9.76061Z" fill="#72D54A"/>
<path d="M11.4469 10.872L15.4185 16.9913C17.3083 15.5748 18.5748 13.374 18.7397 10.872H11.4469Z" fill="#FF7258"/>
<path d="M9.86803 10.4809V2C5.52323 2.28638 2.08691 5.89903 2.08691 10.3164C2.08691 14.9205 5.81948 18.6531 10.4236 18.6531C11.8988 18.6531 13.2836 18.2683 14.4858 17.5961L9.86803 10.4809Z" fill="#00ABE0"/>
<path d="M20.747 15.3435H17.8002C17.7392 15.3435 17.68 15.3215 17.6342 15.2816L14.3547 12.4296C14.2493 12.3381 14.2381 12.1782 14.3297 12.0727C14.4215 11.9669 14.5814 11.9566 14.6867 12.0476L17.8945 14.8376H20.747C20.8869 14.8376 21 14.9507 21 15.0906C21 15.2305 20.8869 15.3435 20.747 15.3435Z" fill="#C1C1C1"/>
<path d="M20.7469 16.6105H17.8652C17.7253 16.6105 17.6122 16.4974 17.6122 16.3575C17.6122 16.2176 17.7253 16.1045 17.8652 16.1045H20.7469C20.8868 16.1045 20.9999 16.2176 20.9999 16.3575C20.9999 16.4974 20.8868 16.6105 20.7469 16.6105Z" fill="#C1C1C1"/>
<path d="M12.3258 8.0019C12.2552 8.0019 12.1848 7.97255 12.1348 7.91487C12.0432 7.80938 12.0543 7.64974 12.1598 7.55791L16.4494 3.82711C16.4955 3.78714 16.5544 3.76488 16.6154 3.76488H20.4699C20.6098 3.76488 20.7229 3.87822 20.7229 4.01786C20.7229 4.15751 20.6098 4.27085 20.4699 4.27085H16.71L12.4917 7.93992C12.4437 7.98166 12.3847 8.0019 12.3258 8.0019Z" fill="#C1C1C1"/>
<path d="M20.4699 2.61404H16.7006C16.5607 2.61404 16.4476 2.5007 16.4476 2.36105C16.4476 2.2214 16.5607 2.10806 16.7006 2.10806H20.4699C20.6098 2.10806 20.7229 2.2214 20.7229 2.36105C20.7229 2.5007 20.6098 2.61404 20.4699 2.61404Z" fill="#C1C1C1"/>
<path d="M4.10749 17.3199H0.252987C0.113338 17.3199 0 17.2069 0 17.067C0 16.9271 0.113338 16.814 0.252987 16.814H4.01288L8.23092 13.1452C8.33642 13.0538 8.49631 13.0647 8.58789 13.1702C8.67972 13.2757 8.66834 13.4356 8.56309 13.5272L4.2737 17.258C4.22741 17.2979 4.16872 17.3199 4.10749 17.3199Z" fill="#C1C1C1"/>
<path d="M4.02224 18.9773H0.252987C0.113338 18.9773 0 18.8642 0 18.7243C0 18.5844 0.113338 18.4713 0.252987 18.4713H4.02224C4.16189 18.4713 4.27522 18.5844 4.27522 18.7243C4.27522 18.8642 4.16189 18.9773 4.02224 18.9773Z" fill="#C1C1C1"/>
</g>
<defs>
<clipPath id="clip0_584_86">
<rect width="21" height="21" fill="white"/>
</clipPath>
</defs>
</svg>
