<svg width="21" height="21" viewBox="0 0 21 21" fill="none" xmlns="http://www.w3.org/2000/svg">
<path d="M19.7306 9.67017L6.72932 19.4753C6.48267 19.6613 6.1323 19.612 5.94628 19.3656L0.458581 12.0893C0.272562 11.8427 0.32189 11.4923 0.568303 11.3063L13.5696 1.5012C13.8163 1.31518 14.1666 1.36451 14.3527 1.61092L19.8404 8.88736C20.0262 9.13377 19.9771 9.48438 19.7306 9.67017Z" fill="#FDDC66"/>
<path d="M6.39352 19.818C6.15379 19.818 5.91729 19.7097 5.76216 19.5045L0.274689 12.2281C0.147679 12.0598 0.0937401 11.8519 0.123015 11.6431C0.152289 11.4342 0.261319 11.2494 0.42959 11.1221L13.4309 1.31702C13.5994 1.19024 13.8066 1.13584 14.0162 1.16558C14.225 1.19485 14.4099 1.30365 14.5369 1.47215L20.0246 8.74859C20.1516 8.9171 20.2053 9.12478 20.176 9.33362C20.1468 9.54246 20.0377 9.72733 19.8695 9.85434L6.86813 19.6595C6.72614 19.7664 6.55925 19.818 6.39352 19.818ZM13.9055 1.61876C13.8345 1.61876 13.7661 1.64158 13.7087 1.68514L0.707352 11.4905C0.637278 11.5433 0.592098 11.62 0.579881 11.7069C0.567664 11.7938 0.590023 11.8803 0.64281 11.9503L6.13028 19.2268C6.23931 19.3713 6.44561 19.4008 6.5906 19.2911L19.5917 9.48622H19.5919C19.662 9.43343 19.7074 9.35644 19.7196 9.26954C19.7319 9.18264 19.7093 9.0962 19.6565 9.02613L14.1688 1.74969C14.116 1.67961 14.0392 1.63443 13.9521 1.62221C13.9364 1.61991 13.921 1.61876 13.9055 1.61876Z" fill="white"/>
<path d="M6.18105 16.7498C6.1112 16.7498 6.04205 16.7182 5.99687 16.6582C5.92011 16.5566 5.9404 16.4121 6.04205 16.3353L7.83402 14.9838C7.93567 14.9073 8.0802 14.9274 8.15673 15.029C8.23349 15.1307 8.21321 15.2752 8.11155 15.352L6.31958 16.7034C6.27809 16.7345 6.22945 16.7498 6.18105 16.7498Z" fill="white"/>
<path d="M9.20314 14.4705C9.1333 14.4705 9.06415 14.4387 9.01897 14.379C8.94221 14.2773 8.96249 14.1328 9.06415 14.056L10.8561 12.7046C10.9582 12.6278 11.1023 12.6488 11.1791 12.7497C11.2556 12.8514 11.2353 12.9959 11.1339 13.0727L9.34168 14.4242C9.30019 14.4555 9.25132 14.4705 9.20314 14.4705Z" fill="white"/>
<path d="M12.2254 12.1915C12.1553 12.1915 12.0864 12.1599 12.041 12.0999C11.9645 11.9983 11.9848 11.8538 12.0862 11.777L13.8779 10.4258C13.9803 10.349 14.1243 10.3698 14.2009 10.4709C14.2774 10.5726 14.2571 10.7171 14.1557 10.7937L12.364 12.1451C12.3225 12.1762 12.2736 12.1915 12.2254 12.1915Z" fill="white"/>
<path d="M15.2473 9.9122C15.1772 9.9122 15.1083 9.88062 15.0629 9.82046C14.9863 9.7188 15.0066 9.57428 15.108 9.49775L16.9 8.14628C17.0021 8.06952 17.1462 8.09027 17.223 8.19146C17.2995 8.29311 17.2792 8.43764 17.1778 8.51417L15.3858 9.86564C15.3443 9.89699 15.2955 9.9122 15.2473 9.9122Z" fill="white"/>
<path d="M10.792 6.45343C10.7219 6.45343 10.653 6.42185 10.6078 6.36168C10.5311 6.26003 10.5514 6.1155 10.653 6.03897L13.622 3.79982C13.7243 3.72306 13.8681 3.74358 13.9449 3.845C14.0214 3.94665 14.0011 4.09118 13.8997 4.16771L10.9308 6.40686C10.8891 6.43821 10.8402 6.45343 10.792 6.45343Z" fill="white"/>
<path d="M20.0714 17.7794H3.78713C3.47825 17.7794 3.22815 17.5291 3.22815 17.2204V8.10663C3.22815 7.79775 3.47848 7.54765 3.78713 7.54765H20.0714C20.3802 7.54765 20.6303 7.79798 20.6303 8.10663V17.2202C20.6306 17.5291 20.3802 17.7794 20.0714 17.7794Z" fill="#2ABCC8"/>
<path d="M20.0714 18.0102H3.78717C3.35174 18.0102 2.99768 17.6559 2.99768 17.2204V8.10663C2.99768 7.6712 3.35197 7.31714 3.78717 7.31714H20.0714C20.5068 7.31714 20.8611 7.67143 20.8611 8.10663V17.2204C20.8611 17.6559 20.5068 18.0102 20.0714 18.0102ZM3.78717 7.77815C3.60599 7.77815 3.4587 7.92545 3.4587 8.10663V17.2204C3.4587 17.4016 3.60599 17.5492 3.78717 17.5492H20.0714C20.2526 17.5492 20.4001 17.4016 20.4001 17.2204V8.10663C20.4001 7.92545 20.2526 7.77815 20.0714 7.77815H3.78717Z" fill="white"/>
<path d="M7.8307 12.1228H5.47653C5.28474 12.1228 5.12915 11.9672 5.12915 11.7754V9.99218C5.12915 9.8004 5.28474 9.64481 5.47653 9.64481H7.83047C8.02225 9.64481 8.17785 9.8004 8.17785 9.99218V11.7754C8.17785 11.9672 8.02248 12.1228 7.8307 12.1228Z" fill="#FDDC66"/>
<path d="M7.83052 12.3533H5.47658C5.15802 12.3533 4.89893 12.094 4.89893 11.7754V9.99219C4.89893 9.67363 5.15825 9.41454 5.47658 9.41454H7.83052C8.14909 9.41454 8.40841 9.67386 8.40841 9.99219V11.7754C8.40841 12.094 8.14932 12.3533 7.83052 12.3533ZM5.47658 9.87532C5.41227 9.87532 5.35994 9.92765 5.35994 9.99196V11.7752C5.35994 11.8395 5.41227 11.892 5.47658 11.892H7.83052C7.89484 11.892 7.94739 11.8395 7.94739 11.7752V9.99196C7.94739 9.92765 7.89484 9.87532 7.83052 9.87532H5.47658Z" fill="white"/>
<path d="M7.37364 15.3195H5.12919C5.00195 15.3195 4.89868 15.2164 4.89868 15.0889C4.89868 14.9615 5.00195 14.8584 5.12919 14.8584H7.37364C7.50088 14.8584 7.60415 14.9615 7.60415 15.0889C7.60415 15.2164 7.50112 15.3195 7.37364 15.3195Z" fill="white"/>
<path d="M11.1588 15.3195H8.91459C8.78735 15.3195 8.68408 15.2164 8.68408 15.0889C8.68408 14.9615 8.78735 14.8584 8.91459 14.8584H11.1588C11.2863 14.8584 11.3893 14.9615 11.3893 15.0889C11.3893 15.2164 11.2863 15.3195 11.1588 15.3195Z" fill="white"/>
<path d="M14.9442 15.3195H12.6997C12.5723 15.3195 12.4692 15.2164 12.4692 15.0889C12.4692 14.9615 12.5723 14.8584 12.6997 14.8584H14.9442C15.0717 14.8584 15.1747 14.9615 15.1747 15.0889C15.1747 15.2164 15.0717 15.3195 14.9442 15.3195Z" fill="white"/>
<path d="M18.7294 15.3195H16.4851C16.3577 15.3195 16.2546 15.2164 16.2546 15.0889C16.2546 14.9615 16.3577 14.8584 16.4851 14.8584H18.7294C18.8568 14.8584 18.9599 14.9615 18.9599 15.0889C18.9599 15.2164 18.8566 15.3195 18.7294 15.3195Z" fill="white"/>
<path d="M18.7294 9.87531H12.6997C12.5723 9.87531 12.4692 9.77205 12.4692 9.64481C12.4692 9.51757 12.5723 9.4143 12.6997 9.4143H18.7294C18.8568 9.4143 18.9599 9.51757 18.9599 9.64481C18.9599 9.77205 18.8566 9.87531 18.7294 9.87531Z" fill="white"/>
</svg>
