<svg width="21" height="21" viewBox="0 0 21 21" fill="none" xmlns="http://www.w3.org/2000/svg">
<path fill-rule="evenodd" clip-rule="evenodd" d="M8.89445 3.33551C8.41117 3.33551 8.01942 3.72727 8.01942 4.21051V4.66618H6.0379H4.05513C3.71685 4.66618 3.44263 4.9404 3.44263 5.27868C3.44263 5.61695 3.71685 5.89118 4.05513 5.89118H5.4254V16.0598C5.4254 16.8813 6.09137 17.5473 6.9129 17.5473H14.0854C14.9069 17.5473 15.5729 16.8813 15.5729 16.0598V5.89118H15.5742H15.5779H15.5815H15.5853H15.589H15.5927H15.5963H15.6H15.6038H15.6074H15.6111H15.6148H15.6185H15.6221H15.6258H15.6294H15.6331H15.6368H15.6404H15.6441H15.6477H15.6514H15.655H15.6586H15.6623H15.666H15.6696H15.6732H15.6768H15.6805H15.6841H15.6878H15.6914H15.6949H15.6986H15.7022H15.7058H15.7095H15.7131H15.7166H15.7202H15.7238H15.7275H15.7311H15.7347H15.7383H15.7418H15.7454H15.749H15.7526H15.7562H15.7598H15.7634H15.767H15.7705H15.7741H15.7777H15.7813H15.7848H15.7884H15.792H15.7956H15.7992H15.8027H15.8062H15.8098H15.8134H15.8169H15.8205H15.8241H15.8277H15.8312H15.8348H15.8384H15.8419H15.8454H15.8489H15.8525H15.8561H15.8596H15.8632H15.8667H15.8703H15.8738H15.8774H15.8809H15.8845H15.8881H15.8916H15.8951H15.8986H15.9022H15.9057H15.9093H15.9128H15.9163H15.9199H15.9234H15.927H15.9305H15.9341H15.9376H15.9412H15.9447H15.9483H15.9518H15.9553H15.9588H15.9624H15.9659H15.9694H15.973H15.9765H15.9801H15.9836H15.9872H15.9907H15.9943H15.9978H16.0014H16.0049H16.0085H16.012H16.0155H16.019H16.0226H16.0261H16.0297H16.0332H16.0368H16.0404H16.0439H16.0475H16.051H16.0546H16.0582H16.0617H16.0652H16.0687H16.0723H16.0759H16.0794H16.083H16.0866H16.0902H16.0937H16.0973H16.1009H16.1044H16.1079H16.1115H16.1151H16.1187H16.1223H16.1259H16.1294H16.133H16.1366H16.1401H16.1437H16.1473H16.1509H16.1545H16.1581H16.1617H16.1653H16.1688H16.1725H16.1761H16.1797H16.1833H16.1869H16.1905H16.1941H16.1977H16.2013H16.205H16.2086H16.2122H16.2158H16.2194H16.2231H16.2267H16.2304H16.2339H16.2376H16.2412H16.2449H16.2486H16.2521H16.2558H16.2595H16.2631H16.2668H16.2704H16.2741H16.2778H16.2815H16.2851H16.2888H16.2925H16.2962H16.2998H16.3035H16.3072H16.3109H16.3145H16.3183H16.322H16.3256H16.3294H16.3331H16.3368H16.3405H16.3443H16.348H16.3517H16.3554H16.3592H16.3629H16.3666H16.3704H16.3741H16.3779H16.3816H16.3854H16.3892H16.3929H16.3967H16.4005H16.4042H16.408H16.4117H16.4156H16.4194H16.4231H16.427H16.4307H16.4346H16.4383H16.4422H16.446H16.4498H16.4537H16.4575H16.4614H16.4652H16.4691H16.4729H16.4768H16.4806H16.4845H16.4883H16.4922H16.4961H16.4999H16.5038H16.5077H16.5116H16.5155H16.5194H16.5233H16.5272H16.5312H16.535H16.539H16.5429H16.5468H16.5508H16.5547H16.5587H16.5627H16.5666H16.5706H16.5746H16.5785H16.5825H16.5865H16.5905H16.5945H16.5985H16.6025H16.6065H16.6105H16.6146H16.6186H16.6226H16.6266H16.6308H16.6348H16.6388H16.6429H16.6469H16.6511H16.6552H16.6592H16.6633H16.6674H16.6715H16.6756H16.6798H16.6839H16.688H16.6921H16.6963H16.7004H16.7045H16.7087H16.7129H16.717H16.7212H16.7254H16.7296H16.7338H16.738H16.7422H16.7464H16.7506H16.7548H16.7591H16.7633H16.7676H16.7718H16.7761H16.7804H16.7847H16.789H16.7932H16.7975H16.8018H16.8061H16.8104H16.8148H16.8191H16.8234H16.8277H16.8321H16.8365H16.8408H16.8451H16.8496H16.854H16.8583H16.8627H16.8671H16.8716H16.8759H16.8804H16.8849H16.8892H16.8937H16.8982H16.9026H16.9071H16.9116H16.9161H16.9206H16.9251H16.9296H16.9341H16.9386H16.9431C17.2814 5.89118 17.5556 5.61695 17.5556 5.27868C17.5556 4.9404 17.2814 4.66618 16.9431 4.66618H16.9386H16.9341H16.9296H16.9251H16.9206H16.9161H16.9116H16.9071H16.9026H16.8982H16.8937H16.8892H16.8849H16.8804H16.8759H16.8716H16.8671H16.8627H16.8583H16.854H16.8496H16.8451H16.8408H16.8365H16.8321H16.8277H16.8234H16.8191H16.8148H16.8104H16.8061H16.8018H16.7975H16.7932H16.789H16.7847H16.7804H16.7761H16.7718H16.7676H16.7633H16.7591H16.7548H16.7506H16.7464H16.7422H16.738H16.7338H16.7296H16.7254H16.7212H16.717H16.7129H16.7087H16.7045H16.7004H16.6963H16.6921H16.688H16.6839H16.6798H16.6756H16.6715H16.6674H16.6633H16.6592H16.6552H16.6511H16.6469H16.6429H16.6388H16.6348H16.6308H16.6266H16.6226H16.6186H16.6146H16.6105H16.6065H16.6025H16.5985H16.5945H16.5905H16.5865H16.5825H16.5785H16.5746H16.5706H16.5666H16.5627H16.5587H16.5547H16.5508H16.5468H16.5429H16.539H16.535H16.5312H16.5272H16.5233H16.5194H16.5155H16.5116H16.5077H16.5038H16.4999H16.4961H16.4922H16.4883H16.4845H16.4806H16.4768H16.4729H16.4691H16.4652H16.4614H16.4575H16.4537H16.4498H16.446H16.4422H16.4383H16.4346H16.4307H16.427H16.4231H16.4194H16.4156H16.4117H16.408H16.4042H16.4005H16.3967H16.3929H16.3892H16.3854H16.3816H16.3779H16.3741H16.3704H16.3666H16.3629H16.3592H16.3554H16.3517H16.348H16.3443H16.3405H16.3368H16.3331H16.3294H16.3256H16.322H16.3183H16.3145H16.3109H16.3072H16.3035H16.2998H16.2962H16.2925H16.2888H16.2851H16.2815H16.2778H16.2741H16.2704H16.2668H16.2631H16.2595H16.2558H16.2521H16.2486H16.2449H16.2412H16.2376H16.2339H16.2304H16.2267H16.2231H16.2194H16.2158H16.2122H16.2086H16.205H16.2013H16.1977H16.1941H16.1905H16.1869H16.1833H16.1797H16.1761H16.1725H16.1688H16.1653H16.1617H16.1581H16.1545H16.1509H16.1473H16.1437H16.1401H16.1366H16.133H16.1294H16.1259H16.1223H16.1187H16.1151H16.1115H16.1079H16.1044H16.1009H16.0973H16.0937H16.0902H16.0866H16.083H16.0794H16.0759H16.0723H16.0687H16.0652H16.0617H16.0582H16.0546H16.051H16.0475H16.0439H16.0404H16.0368H16.0332H16.0297H16.0261H16.0226H16.019H16.0155H16.012H16.0085H16.0049H16.0014H15.9978H15.9943H15.9907H15.9872H15.9836H15.9801H15.9765H15.973H15.9694H15.9659H15.9624H15.9588H15.9553H15.9518H15.9483H15.9447H15.9412H15.9376H15.9341H15.9305H15.927H15.9234H15.9199H15.9163H15.9128H15.9093H15.9057H15.9022H15.8986H15.8951H15.8916H15.8881H15.8845H15.8809H15.8774H15.8738H15.8703H15.8667H15.8632H15.8596H15.8561H15.8525H15.8489H15.8454H15.8419H15.8384H15.8348H15.8312H15.8277H15.8241H15.8205H15.8169H15.8134H15.8098H15.8062H15.8027H15.7992H15.7956H15.792H15.7884H15.7848H15.7813H15.7777H15.7741H15.7705H15.767H15.7634H15.7598H15.7562H15.7526H15.749H15.7454H15.7418H15.7383H15.7347H15.7311H15.7275H15.7238H15.7202H15.7166H15.7131H15.7095H15.7058H15.7022H15.6986H15.6949H15.6914H15.6878H15.6841H15.6805H15.6768H15.6732H15.6696H15.666H15.6623H15.6586H15.655H15.6514H15.6477H15.6441H15.6404H15.6368H15.6331H15.6294H15.6258H15.6221H15.6185H15.6148H15.6111H15.6074H15.6038H15.6H15.5963H15.5927H15.589H15.5853H15.5815H15.5779H15.5742H15.5704H15.5668H15.563H15.5593H15.5556H15.5519H15.5481H15.5444H15.5407H15.5369H15.5332H15.5294H15.5257H15.522H15.5182H15.5144H15.5107H15.5069H15.5031H15.4993H15.4955H15.4918H15.488H15.4842H15.4804H15.4765H15.4728H15.4689H15.4652H15.4613H15.4576H15.4537H15.4499H15.446H15.4422H15.4384H15.4345H15.4307H15.4268H15.423H15.4191H15.4152H15.4114H15.4075H15.4036H15.3997H15.3959H15.3919H15.388H15.3841H15.3802H15.3764H15.3724H15.3685H15.3645H15.3606H15.3567H15.3527H15.3488H15.3449H15.3409H15.3369H15.333H15.329H15.325H15.3211H15.317H15.313H15.3091H15.305H15.301H15.297H15.293H15.2889H15.2849H15.2809H15.2769H15.2728H15.2687H15.2647H15.2607H15.2566H15.2525H15.2484H15.2443H15.2402H15.2361H15.2321H15.228H15.2238H15.2196H15.2155H15.2114H15.2073H15.2031H15.199H15.1948H15.1907H15.1865H15.1823H15.1782H15.174H15.1698H15.1656H15.1614H15.1572H15.1529H15.1487H15.1445H15.1402H15.136H15.1317H15.1274H15.1232H15.1189H15.1146H15.1104H15.1061H15.1018H15.0974H15.0931H15.0888H15.0845H15.0802H15.0758H15.0714H15.0671H15.0628H15.0584H15.054H15.0496H15.0453H15.0408H15.0364H15.032H15.0276H15.0231H15.0187H15.0143H15.0098H15.0054H15.0009H14.9964H14.992H14.9875H14.983H14.9785H14.9739H14.9695H14.9649H14.9604H12.9763V4.21051C12.9763 3.72727 12.5846 3.33551 12.1013 3.33551H8.89445ZM6.6504 16.0598V5.89118H14.3479V16.0598C14.3479 16.2047 14.2304 16.3223 14.0854 16.3223H6.9129C6.76792 16.3223 6.6504 16.2047 6.6504 16.0598Z" fill="#6C7783"/>
</svg>
