<svg width="18" height="18" viewBox="0 0 18 18" fill="none" xmlns="http://www.w3.org/2000/svg">
<path fill-rule="evenodd" clip-rule="evenodd" d="M7.62379 2.85901C7.20956 2.85901 6.87377 3.1948 6.87377 3.60901V3.99958H5.17533H3.47581C3.18586 3.99958 2.95081 4.23463 2.95081 4.52458C2.95081 4.81453 3.18586 5.04958 3.47581 5.04958H4.65033V13.7655C4.65033 14.4697 5.22116 15.0405 5.92533 15.0405H12.0732C12.7773 15.0405 13.3482 14.4697 13.3482 13.7655V5.04958H13.3493H13.3524H13.3556H13.3588H13.362H13.3651H13.3683H13.3714H13.3746H13.3778H13.3809H13.3841H13.3872H13.3904H13.3935H13.3966H13.3998H13.4029H13.4061H13.4092H13.4123H13.4154H13.4186H13.4217H13.4248H13.428H13.431H13.4342H13.4373H13.4404H13.4435H13.4466H13.4497H13.4528H13.4559H13.459H13.4621H13.4652H13.4683H13.4714H13.4745H13.4775H13.4807H13.4838H13.4868H13.4899H13.493H13.4961H13.4991H13.5022H13.5053H13.5084H13.5114H13.5145H13.5176H13.5207H13.5237H13.5268H13.5298H13.5329H13.536H13.539H13.5421H13.5451H13.5482H13.5513H13.5543H13.5573H13.5604H13.5635H13.5666H13.5696H13.5726H13.5757H13.5787H13.5818H13.5848H13.5879H13.5909H13.5939H13.597H13.6H13.6031H13.6061H13.6092H13.6122H13.6152H13.6183H13.6213H13.6244H13.6274H13.6305H13.6335H13.6365H13.6395H13.6425H13.6456H13.6486H13.6517H13.6547H13.6578H13.6608H13.6638H13.6668H13.6699H13.6729H13.676H13.679H13.6821H13.6851H13.6881H13.6911H13.6941H13.6972H13.7002H13.7033H13.7063H13.7094H13.7124H13.7154H13.7184H13.7215H13.7245H13.7276H13.7306H13.7337H13.7367H13.7397H13.7427H13.7458H13.7489H13.7519H13.755H13.758H13.761H13.7641H13.7671H13.7702H13.7732H13.7763H13.7793H13.7823H13.7854H13.7885H13.7916H13.7946H13.7976H13.8007H13.8038H13.8068H13.8099H13.8129H13.816H13.8191H13.8222H13.8252H13.8282H13.8313H13.8344H13.8375H13.8405H13.8436H13.8467H13.8498H13.8528H13.8559H13.859H13.8621H13.8652H13.8683H13.8714H13.8744H13.8776H13.8807H13.8837H13.8868H13.89H13.893H13.8961H13.8993H13.9023H13.9055H13.9086H13.9117H13.9148H13.9179H13.921H13.9242H13.9273H13.9304H13.9335H13.9367H13.9398H13.9429H13.9461H13.9492H13.9524H13.9555H13.9587H13.9618H13.965H13.9681H13.9713H13.9744H13.9776H13.9807H13.9839H13.9871H13.9902H13.9934H13.9966H13.9998H14.003H14.0061H14.0094H14.0125H14.0157H14.0189H14.0221H14.0253H14.0285H14.0317H14.0349H14.0382H14.0414H14.0446H14.0478H14.0511H14.0543H14.0575H14.0607H14.064H14.0672H14.0705H14.0737H14.0769H14.0802H14.0835H14.0868H14.09H14.0933H14.0966H14.0998H14.1031H14.1064H14.1097H14.113H14.1163H14.1196H14.1229H14.1262H14.1295H14.1328H14.1361H14.1395H14.1428H14.1461H14.1495H14.1528H14.1561H14.1594H14.1628H14.1662H14.1696H14.1729H14.1762H14.1796H14.183H14.1864H14.1897H14.1932H14.1966H14.1999H14.2033H14.2068H14.2101H14.2136H14.217H14.2204H14.2239H14.2272H14.2307H14.2341H14.2376H14.241H14.2445H14.2479H14.2514H14.2549H14.2584H14.2618H14.2653H14.2688H14.2723H14.2758H14.2793H14.2828H14.2863H14.2899H14.2934H14.2969H14.3004H14.304H14.3075H14.3111H14.3146H14.3181H14.3217H14.3253H14.3289H14.3325H14.3361H14.3397H14.3433H14.3469H14.3505H14.3541H14.3577H14.3613H14.3649H14.3685H14.3722H14.3758H14.3795H14.3832H14.3868H14.3905H14.3942H14.3979H14.4015H14.4052H14.4089H14.4126H14.4163H14.4201H14.4237H14.4275H14.4312H14.435H14.4387H14.4425H14.4462H14.45H14.4537H14.4575H14.4613H14.4651H14.4689H14.4727H14.4765H14.4803H14.4841H14.4879H14.4918H14.4957H14.4995H14.5033H14.5072H14.511H14.5149H14.5188H14.5227C14.8126 5.04958 15.0477 4.81453 15.0477 4.52458C15.0477 4.23463 14.8126 3.99958 14.5227 3.99958H14.5188H14.5149H14.511H14.5072H14.5033H14.4995H14.4957H14.4918H14.4879H14.4841H14.4803H14.4765H14.4727H14.4689H14.4651H14.4613H14.4575H14.4537H14.45H14.4462H14.4425H14.4387H14.435H14.4312H14.4275H14.4237H14.4201H14.4163H14.4126H14.4089H14.4052H14.4015H14.3979H14.3942H14.3905H14.3868H14.3832H14.3795H14.3758H14.3722H14.3685H14.3649H14.3613H14.3577H14.3541H14.3505H14.3469H14.3433H14.3397H14.3361H14.3325H14.3289H14.3253H14.3217H14.3181H14.3146H14.3111H14.3075H14.304H14.3004H14.2969H14.2934H14.2899H14.2863H14.2828H14.2793H14.2758H14.2723H14.2688H14.2653H14.2618H14.2584H14.2549H14.2514H14.2479H14.2445H14.241H14.2376H14.2341H14.2307H14.2272H14.2239H14.2204H14.217H14.2136H14.2101H14.2068H14.2033H14.1999H14.1966H14.1932H14.1897H14.1864H14.183H14.1796H14.1762H14.1729H14.1696H14.1662H14.1628H14.1594H14.1561H14.1528H14.1495H14.1461H14.1428H14.1395H14.1361H14.1328H14.1295H14.1262H14.1229H14.1196H14.1163H14.113H14.1097H14.1064H14.1031H14.0998H14.0966H14.0933H14.09H14.0868H14.0835H14.0802H14.0769H14.0737H14.0705H14.0672H14.064H14.0607H14.0575H14.0543H14.0511H14.0478H14.0446H14.0414H14.0382H14.0349H14.0317H14.0285H14.0253H14.0221H14.0189H14.0157H14.0125H14.0094H14.0061H14.003H13.9998H13.9966H13.9934H13.9902H13.9871H13.9839H13.9807H13.9776H13.9744H13.9713H13.9681H13.965H13.9618H13.9587H13.9555H13.9524H13.9492H13.9461H13.9429H13.9398H13.9367H13.9335H13.9304H13.9273H13.9242H13.921H13.9179H13.9148H13.9117H13.9086H13.9055H13.9023H13.8993H13.8961H13.893H13.89H13.8868H13.8837H13.8807H13.8776H13.8744H13.8714H13.8683H13.8652H13.8621H13.859H13.8559H13.8528H13.8498H13.8467H13.8436H13.8405H13.8375H13.8344H13.8313H13.8282H13.8252H13.8222H13.8191H13.816H13.8129H13.8099H13.8068H13.8038H13.8007H13.7976H13.7946H13.7916H13.7885H13.7854H13.7823H13.7793H13.7763H13.7732H13.7702H13.7671H13.7641H13.761H13.758H13.755H13.7519H13.7489H13.7458H13.7427H13.7397H13.7367H13.7337H13.7306H13.7276H13.7245H13.7215H13.7184H13.7154H13.7124H13.7094H13.7063H13.7033H13.7002H13.6972H13.6941H13.6911H13.6881H13.6851H13.6821H13.679H13.676H13.6729H13.6699H13.6668H13.6638H13.6608H13.6578H13.6547H13.6517H13.6486H13.6456H13.6425H13.6395H13.6365H13.6335H13.6305H13.6274H13.6244H13.6213H13.6183H13.6152H13.6122H13.6092H13.6061H13.6031H13.6H13.597H13.5939H13.5909H13.5879H13.5848H13.5818H13.5787H13.5757H13.5726H13.5696H13.5666H13.5635H13.5604H13.5573H13.5543H13.5513H13.5482H13.5451H13.5421H13.539H13.536H13.5329H13.5298H13.5268H13.5237H13.5207H13.5176H13.5145H13.5114H13.5084H13.5053H13.5022H13.4991H13.4961H13.493H13.4899H13.4868H13.4838H13.4807H13.4775H13.4745H13.4714H13.4683H13.4652H13.4621H13.459H13.4559H13.4528H13.4497H13.4466H13.4435H13.4404H13.4373H13.4342H13.431H13.428H13.4248H13.4217H13.4186H13.4154H13.4123H13.4092H13.4061H13.4029H13.3998H13.3966H13.3935H13.3904H13.3872H13.3841H13.3809H13.3778H13.3746H13.3714H13.3683H13.3651H13.362H13.3588H13.3556H13.3524H13.3493H13.3461H13.3429H13.3397H13.3365H13.3333H13.3302H13.3269H13.3237H13.3206H13.3173H13.3141H13.3109H13.3077H13.3045H13.3013H13.2981H13.2948H13.2916H13.2883H13.2851H13.2819H13.2786H13.2754H13.2721H13.2689H13.2656H13.2624H13.2591H13.2558H13.2525H13.2493H13.246H13.2427H13.2394H13.2362H13.2329H13.2296H13.2263H13.223H13.2197H13.2163H13.213H13.2097H13.2064H13.203H13.1997H13.1964H13.1931H13.1897H13.1864H13.183H13.1797H13.1763H13.173H13.1696H13.1662H13.1628H13.1595H13.1561H13.1527H13.1493H13.1459H13.1425H13.1391H13.1357H13.1323H13.1289H13.1254H13.122H13.1186H13.1151H13.1117H13.1082H13.1048H13.1013H13.0979H13.0944H13.091H13.0875H13.084H13.0806H13.077H13.0735H13.0701H13.0665H13.063H13.0595H13.056H13.0525H13.049H13.0454H13.0419H13.0383H13.0348H13.0312H13.0277H13.0241H13.0206H13.017H13.0134H13.0098H13.0062H13.0026H12.999H12.9954H12.9918H12.9882H12.9846H12.981H12.9773H12.9737H12.97H12.9663H12.9627H12.9591H12.9554H12.9517H12.948H12.9444H12.9406H12.9369H12.9333H12.9295H12.9258H12.9221H12.9183H12.9147H12.9109H12.9072H12.9034H12.8997H12.8959H12.8921H12.8883H12.8846H12.8808H12.8769H12.8732H12.8694H12.8655H12.8617H12.8579H12.8541H12.8502H12.8464H12.8425H12.8387H12.8348H12.831H12.8271H12.8232H11.1225V3.60901C11.1225 3.1948 10.7868 2.85901 10.3725 2.85901H7.62379ZM5.70033 13.7655V5.04958H12.2982V13.7655C12.2982 13.8898 12.1974 13.9905 12.0732 13.9905H5.92533C5.80106 13.9905 5.70033 13.8898 5.70033 13.7655Z" fill="#909FAF"/>
</svg>
