<svg width="16" height="16" viewBox="0 0 16 16" fill="none" xmlns="http://www.w3.org/2000/svg">
<g clip-path="url(#clip0_572_6)">
<path d="M1.3457 15.8942C1.03098 15.8942 0.716433 15.774 0.476353 15.5341C-0.00380538 15.054 -0.00380538 14.2756 0.476353 13.7954L6.28094 7.99104L0.476529 2.18663C-0.00362985 1.70665 -0.00362985 0.928101 0.476529 0.448118C0.956512 -0.0318648 1.73506 -0.0318648 2.21504 0.448118L8.88879 7.12187C9.36878 7.60185 9.36878 8.3804 8.88879 8.86056L2.21504 15.5343C1.97496 15.774 1.66042 15.8942 1.3457 15.8942Z" fill="#6C7783"/>
<path d="M7.96289 15.8942C7.64817 15.8942 7.33362 15.774 7.09354 15.5341C6.61338 15.054 6.61338 14.2756 7.09354 13.7954L12.8979 7.99104L7.09354 2.18663C6.61338 1.70665 6.61338 0.928102 7.09354 0.448119C7.57352 -0.0316883 8.35207 -0.0318639 8.83223 0.448119L15.506 7.12187C15.986 7.60185 15.986 8.3804 15.506 8.86056L8.83223 15.5343C8.59215 15.774 8.27743 15.8942 7.96289 15.8942Z" fill="#6C7783"/>
</g>
<defs>
<clipPath id="clip0_572_6">
<rect width="16" height="16" fill="white"/>
</clipPath>
</defs>
</svg>
