<svg width="21" height="21" viewBox="0 0 21 21" fill="none" xmlns="http://www.w3.org/2000/svg">
<path d="M2.32874 0.345894V20.6306H5.68931C5.98367 20.0174 6.60834 19.5931 7.33375 19.5931C8.05916 19.5931 8.68407 20.0174 8.97842 20.6306H11.9981C12.2924 20.0174 12.9171 19.5931 13.6425 19.5931C14.3679 19.5931 14.9928 20.0174 15.287 20.6306H18.6475V0.345894H2.32874Z" fill="#EAE78B"/>
<path d="M18.6476 20.8611H15.287C15.1983 20.8611 15.1176 20.8101 15.0793 20.7304C14.811 20.1709 14.2603 19.8236 13.6428 19.8236C13.0253 19.8236 12.4746 20.1712 12.206 20.7304C12.1675 20.8101 12.0869 20.8611 11.9981 20.8611H8.97846C8.88972 20.8611 8.80904 20.8101 8.77078 20.7304C8.50223 20.1709 7.95178 19.8236 7.33402 19.8236C6.71626 19.8236 6.16581 20.1709 5.89727 20.7304C5.859 20.8101 5.77809 20.8611 5.68935 20.8611H2.32877C2.20153 20.8611 2.09827 20.7581 2.09827 20.6306V0.345895C2.09827 0.218654 2.20153 0.115387 2.32877 0.115387H18.6476C18.775 0.115387 18.8781 0.218654 18.8781 0.345895V20.6306C18.8781 20.7581 18.775 20.8611 18.6476 20.8611ZM15.4262 20.4001H18.4173V0.576403H2.55928V20.4001H5.55035C5.91386 19.7653 6.59847 19.3626 7.33402 19.3626C8.06957 19.3626 8.75418 19.7653 9.11769 20.4001H11.8591C12.2229 19.7653 12.9077 19.3626 13.6428 19.3626C14.3781 19.3626 15.0627 19.7653 15.4262 20.4001Z" fill="white"/>
<path d="M6.24486 9.43597H5.49687C5.36962 9.43597 5.26636 9.3327 5.26636 9.20546C5.26636 9.07822 5.36962 8.97495 5.49687 8.97495H6.24486C6.3721 8.97495 6.47537 9.07822 6.47537 9.20546C6.47537 9.3327 6.3721 9.43597 6.24486 9.43597Z" fill="black"/>
<path d="M15.4797 9.43597H7.80192C7.67468 9.43597 7.57141 9.3327 7.57141 9.20546C7.57141 9.07822 7.67468 8.97495 7.80192 8.97495H15.4797C15.6071 8.97495 15.7102 9.07822 15.7102 9.20546C15.7102 9.3327 15.6071 9.43597 15.4797 9.43597Z" fill="black"/>
<path d="M6.24486 11.7413H5.49687C5.36962 11.7413 5.26636 11.6382 5.26636 11.5108C5.26636 11.3833 5.36962 11.2803 5.49687 11.2803H6.24486C6.3721 11.2803 6.47537 11.3833 6.47537 11.5108C6.47537 11.6382 6.3721 11.7413 6.24486 11.7413Z" fill="black"/>
<path d="M15.4797 11.7413H7.80192C7.67468 11.7413 7.57141 11.6382 7.57141 11.5108C7.57141 11.3833 7.67468 11.2803 7.80192 11.2803H15.4797C15.6071 11.2803 15.7102 11.3833 15.7102 11.5108C15.7102 11.6382 15.6071 11.7413 15.4797 11.7413Z" fill="black"/>
<path d="M6.24486 14.0464H5.49687C5.36962 14.0464 5.26636 13.9433 5.26636 13.8159C5.26636 13.6884 5.36962 13.5853 5.49687 13.5853H6.24486C6.3721 13.5853 6.47537 13.6884 6.47537 13.8159C6.47537 13.9433 6.3721 14.0464 6.24486 14.0464Z" fill="black"/>
<path d="M15.4797 14.0464H7.80192C7.67468 14.0464 7.57141 13.9433 7.57141 13.8159C7.57141 13.6884 7.67468 13.5853 7.80192 13.5853H15.4797C15.6071 13.5853 15.7102 13.6884 15.7102 13.8159C15.7102 13.9433 15.6071 14.0464 15.4797 14.0464Z" fill="black"/>
<path d="M15.4797 16.3514H13.076C12.9485 16.3514 12.8455 16.2484 12.8455 16.1209C12.8455 15.9935 12.9485 15.8904 13.076 15.8904H15.4799C15.6074 15.8904 15.7104 15.9935 15.7104 16.1209C15.7104 16.2484 15.6072 16.3514 15.4797 16.3514Z" fill="black"/>
<path d="M11.519 5.31933C11.3915 5.31933 11.2885 5.21606 11.2885 5.08882C11.2885 4.93046 11.1596 4.80184 11.0017 4.80184C10.8743 4.80184 10.7712 4.69857 10.7712 4.57133C10.7712 4.44409 10.8743 4.34082 11.0017 4.34082C11.4141 4.34082 11.7495 4.67644 11.7495 5.08882C11.7495 5.21606 11.6462 5.31933 11.519 5.31933Z" fill="black"/>
<path d="M10.4882 2.97022C10.361 2.97022 10.2577 2.86695 10.2577 2.73971V2.0989C10.2577 1.97166 10.361 1.86839 10.4882 1.86839C10.6154 1.86839 10.7187 1.97166 10.7187 2.0989V2.73971C10.7187 2.86718 10.6154 2.97022 10.4882 2.97022Z" fill="black"/>
<path d="M11.0018 4.80184H9.97493C9.56232 4.80184 9.22693 4.46622 9.22693 4.05384V3.25721C9.22693 2.8446 9.56255 2.50921 9.97493 2.50921H11.0018C11.4142 2.50921 11.7496 2.84483 11.7496 3.25721C11.7496 3.38445 11.6466 3.48771 11.5191 3.48771C11.3916 3.48771 11.2886 3.38445 11.2886 3.25721C11.2886 3.09885 11.1597 2.97022 11.0018 2.97022H9.97493C9.81657 2.97022 9.68794 3.09908 9.68794 3.25721V4.05384C9.68794 4.2122 9.8168 4.34082 9.97493 4.34082H11.0018C11.1293 4.34082 11.2323 4.44409 11.2323 4.57133C11.2323 4.69857 11.1291 4.80184 11.0018 4.80184Z" fill="black"/>
<path d="M10.4882 7.2745C10.361 7.2745 10.2577 7.17123 10.2577 7.04399V6.40295C10.2577 6.27571 10.361 6.17244 10.4882 6.17244C10.6154 6.17244 10.7187 6.27571 10.7187 6.40295V7.04399C10.7187 7.17123 10.6154 7.2745 10.4882 7.2745Z" fill="black"/>
<path d="M11.0018 6.63346H9.97493C9.56232 6.63346 9.22693 6.29784 9.22693 5.88546C9.22693 5.75822 9.3302 5.65495 9.45744 5.65495C9.58468 5.65495 9.68794 5.75822 9.68794 5.88546C9.68794 6.04382 9.8168 6.17244 9.97493 6.17244H11.0018C11.16 6.17244 11.2886 6.04382 11.2886 5.88546V5.08882C11.2886 4.96158 11.3916 4.85831 11.5191 4.85831C11.6466 4.85831 11.7496 4.96158 11.7496 5.08882V5.88546C11.7496 6.29784 11.4142 6.63346 11.0018 6.63346Z" fill="black"/>
</svg>
