<svg width="21" height="21" viewBox="0 0 21 21" fill="none" xmlns="http://www.w3.org/2000/svg">
<g clip-path="url(#clip0_584_75)">
<path d="M9.03671 20.775H6.39517C5.93827 20.775 5.56799 20.4048 5.56799 19.9479V8.6995C5.56799 8.2426 5.93827 7.87233 6.39517 7.87233H9.03671C9.49361 7.87233 9.86388 8.2426 9.86388 8.6995V19.9479C9.86388 20.4048 9.49361 20.775 9.03671 20.775Z" fill="#FFC36E"/>
<path d="M14.6048 20.7751H11.9633C11.5064 20.7751 11.1361 20.4048 11.1361 19.9479V6.6006C11.1361 6.1437 11.5064 5.77342 11.9633 5.77342H14.6048C15.0617 5.77342 15.432 6.1437 15.432 6.6006V19.9479C15.432 20.4048 15.0614 20.7751 14.6048 20.7751Z" fill="#A5D76E"/>
<path d="M3.46872 20.775H0.827174C0.370273 20.775 0 20.4048 0 19.9479V14.1014C0 13.6445 0.370273 13.2742 0.827174 13.2742H3.46872C3.92562 13.2742 4.29589 13.6445 4.29589 14.1014V19.9479C4.29589 20.4048 3.92532 20.775 3.46872 20.775Z" fill="#D2555A"/>
<path d="M20.1728 20.7751H17.5313C17.0744 20.7751 16.7041 20.4048 16.7041 19.9479V2.82717C16.7041 2.37027 17.0744 2 17.5313 2H20.1728C20.6297 2 21 2.37027 21 2.82717V19.9479C21 20.4048 20.6297 20.7751 20.1728 20.7751Z" fill="#78D2BE"/>
</g>
<defs>
<clipPath id="clip0_584_75">
<rect width="21" height="21" fill="white"/>
</clipPath>
</defs>
</svg>
