<svg width="21" height="21" viewBox="0 0 21 21" fill="none" xmlns="http://www.w3.org/2000/svg">
<g clip-path="url(#clip0_421_17)">
<path d="M18.4138 3.37222V1.9818C18.4138 1.30549 17.8654 0.757111 17.1891 0.757111H8.9021V3.37245H18.4138V3.37222Z" fill="#FFBA57"/>
<path d="M18.6497 3.37222H12.5686C11.9022 3.37222 11.2642 3.10276 10.7995 2.62492L9.30925 1.09296C8.84478 0.61535 8.2065 0.345886 7.5401 0.345886H2.3304C1.5741 0.345886 0.961182 0.959037 0.961182 1.7151V3.37222V13.7354C0.961182 14.4917 1.57433 15.1046 2.3304 15.1046H8.38607C8.38469 15.0737 8.38146 15.0431 8.38146 15.0117C8.38146 13.85 9.32654 12.9049 10.4885 12.9049C11.6503 12.9049 12.5956 13.85 12.5956 15.0117C12.5956 15.0431 12.5924 15.0735 12.591 15.1046H18.6501C19.4064 15.1046 20.0193 14.4915 20.0193 13.7354V4.74167C20.0189 3.98537 19.406 3.37222 18.6497 3.37222Z" fill="#FFE27A"/>
<path d="M15.6361 15.6154C15.2622 15.4603 15.2326 15.1142 15.2326 15.012C15.2326 14.9097 15.2613 14.5636 15.6352 14.4085C15.8235 14.3305 15.9706 14.1834 16.0486 13.9951C16.1266 13.8068 16.1266 13.5997 16.0486 13.4114L15.5518 12.2117C15.3904 11.8234 14.9439 11.6378 14.5547 11.7992C14.1808 11.9543 13.9154 11.7301 13.8437 11.6575C13.771 11.5849 13.5469 11.3204 13.702 10.9464C13.78 10.7581 13.78 10.551 13.702 10.3627C13.624 10.1744 13.4769 10.0274 13.2895 9.94934L12.0898 9.45258C11.7015 9.29208 11.2541 9.47679 11.0927 9.86595C10.9375 10.239 10.5923 10.2686 10.4901 10.2686C10.3879 10.2686 10.0418 10.2399 9.88663 9.86595C9.80862 9.67765 9.66156 9.53059 9.47326 9.45258C9.28496 9.37457 9.07783 9.37457 8.88863 9.45258L7.68888 9.94934C7.50058 10.0274 7.35352 10.1744 7.27551 10.3627C7.1975 10.551 7.1975 10.7581 7.27551 10.9464C7.43064 11.3204 7.20647 11.5858 7.13384 11.6575C7.06121 11.7301 6.79669 11.9543 6.42277 11.7992C6.23447 11.7212 6.02734 11.7212 5.83814 11.7992C5.64984 11.8772 5.50278 12.0242 5.42477 12.2125L4.92801 13.4123C4.85 13.6006 4.85 13.8077 4.92801 13.9969C5.00603 14.1852 5.15308 14.3323 5.34138 14.4103C5.7153 14.5654 5.74399 14.9115 5.74399 15.0138C5.74399 15.116 5.7153 15.4621 5.34049 15.6172C4.95223 15.7786 4.76661 16.2261 4.92801 16.6143L5.42477 17.8141C5.50278 18.0024 5.64984 18.1494 5.83814 18.2274C6.02644 18.3055 6.23357 18.3055 6.42188 18.2274C6.79579 18.0732 7.06121 18.2965 7.13294 18.3691C7.20557 18.4418 7.42884 18.7063 7.27461 19.0802C7.11321 19.4684 7.29882 19.9159 7.68798 20.0773L8.88773 20.574C8.98188 20.6126 9.08052 20.6323 9.18005 20.6323C9.27868 20.6323 9.37822 20.6126 9.47237 20.574C9.66067 20.496 9.80772 20.349 9.88573 20.1616C10.0409 19.7877 10.387 19.759 10.4892 19.759C10.5914 19.759 10.9375 19.7877 11.0927 20.1625C11.2541 20.5507 11.7015 20.7354 12.0898 20.5749L13.2904 20.0782C13.6787 19.9168 13.8643 19.4693 13.7029 19.0811C13.5478 18.7072 13.7719 18.4418 13.8446 18.37C13.9172 18.2974 14.1817 18.0732 14.5556 18.2283C14.9448 18.3888 15.3913 18.2041 15.5527 17.815L16.0495 16.6152C16.2091 16.2234 16.0244 15.7759 15.6361 15.6154ZM10.4883 17.1192C9.32621 17.1192 8.38111 16.1741 8.38111 15.012C8.38111 13.8499 9.32621 12.9048 10.4883 12.9048C11.6504 12.9048 12.5955 13.8499 12.5955 15.012C12.5955 16.1741 11.6504 17.1192 10.4883 17.1192Z" fill="#FF4755"/>
<path d="M18.6494 15.3379H17.1264C16.9989 15.3379 16.8959 15.2349 16.8959 15.1074C16.8959 14.9799 16.9989 14.8769 17.1264 14.8769H18.6494C19.2775 14.8769 19.7883 14.3658 19.7883 13.7379V4.74237C19.7883 4.11424 19.2773 3.60343 18.6494 3.60343H12.5674C11.843 3.60343 11.1378 3.30561 10.6326 2.78628L9.14209 1.25387C8.72326 0.823276 8.13846 0.576403 7.53776 0.576403H2.32713C1.69922 0.576403 1.18819 1.08744 1.18819 1.71534V13.7377C1.18819 14.3658 1.69922 14.8766 2.32713 14.8766H3.8796C4.00684 14.8766 4.11011 14.9797 4.11011 15.1072C4.11011 15.2346 4.00684 15.3377 3.8796 15.3377H2.32713C1.44474 15.3377 0.727173 14.6199 0.727173 13.7377V1.71534C0.727173 0.833188 1.44497 0.115387 2.32713 0.115387H7.53776C8.26224 0.115387 8.96737 0.413203 9.47264 0.932537L10.9631 2.46472C11.3819 2.89531 11.9667 3.14218 12.5674 3.14218H18.6496C19.5318 3.14218 20.2496 3.85999 20.2496 4.74214V13.7375C20.2496 14.6201 19.5315 15.3379 18.6494 15.3379Z" fill="black"/>
<path d="M18.4136 3.60343C18.2861 3.60343 18.183 3.50016 18.183 3.37292V1.98204C18.183 1.43366 17.7368 0.987627 17.1886 0.987627H8.89958C8.77233 0.987627 8.66907 0.884359 8.66907 0.757119C8.66907 0.629879 8.77233 0.526611 8.89958 0.526611H17.1886C17.991 0.526611 18.6441 1.17964 18.6441 1.98204V3.37292C18.6441 3.50016 18.541 3.60343 18.4136 3.60343Z" fill="black"/>
<path d="M11.7966 20.861C11.6665 20.861 11.5383 20.835 11.4164 20.7848C11.1707 20.6835 10.9797 20.4925 10.8784 20.2477C10.7806 20.0127 10.5735 19.9867 10.4883 19.9867C10.4031 19.9867 10.196 20.0118 10.0983 20.2477C9.88844 20.7534 9.3056 20.9937 8.79988 20.7848L7.59923 20.288C7.0935 20.0782 6.8523 19.4954 7.06212 18.9896C7.15986 18.7538 7.03074 18.5897 6.97066 18.5296C6.91058 18.4696 6.7447 18.3404 6.51066 18.4382C6.00404 18.6471 5.4221 18.4059 5.21228 17.9002L4.71552 16.7004C4.50659 16.1938 4.7469 15.6119 5.25263 15.402C5.48845 15.3043 5.51356 15.0972 5.51356 15.012C5.51356 14.9268 5.48845 14.7197 5.25352 14.6219C5.00784 14.5206 4.81774 14.3296 4.71552 14.0839C4.6142 13.8391 4.6142 13.5683 4.71552 13.3235L5.21228 12.1238C5.4221 11.6181 6.00494 11.3769 6.51066 11.5867C6.74649 11.6844 6.91058 11.5553 6.97066 11.4952C7.03074 11.4351 7.15986 11.2702 7.06212 11.0352C6.96079 10.7895 6.96079 10.5196 7.06212 10.2748C7.16344 10.0301 7.35443 9.83907 7.59923 9.73684L8.79898 9.24009C9.3056 9.03026 9.88754 9.27147 10.0974 9.77809C10.1951 10.013 10.4022 10.0381 10.4874 10.0381C10.5726 10.0381 10.7797 10.013 10.8775 9.77809C10.9788 9.5324 11.1698 9.34141 11.4155 9.24009C11.6612 9.13876 11.9311 9.13876 12.1759 9.24009L13.3756 9.73684C13.6204 9.83817 13.8114 10.0292 13.9136 10.2748C14.0149 10.5205 14.0149 10.7904 13.9136 11.0352C13.8159 11.2702 13.945 11.4351 14.0051 11.4952C14.0652 11.5553 14.2292 11.6835 14.4651 11.5867C14.7108 11.4854 14.9807 11.4854 15.2255 11.5867C15.4711 11.688 15.6621 11.879 15.7635 12.1247L16.2602 13.3244C16.3615 13.5701 16.3615 13.84 16.2602 14.0848C16.1589 14.3305 15.9679 14.5215 15.7222 14.6228C15.4873 14.7206 15.4622 14.9277 15.4622 15.0129C15.4622 15.0981 15.4873 15.3052 15.7231 15.4029C15.9679 15.5043 16.1589 15.6953 16.2602 15.9409C16.3615 16.1866 16.3615 16.4565 16.2602 16.7013L15.7635 17.9011C15.6621 18.1468 15.4711 18.3378 15.2255 18.4391C14.9807 18.5404 14.7108 18.5413 14.4651 18.4391C14.231 18.3422 14.0652 18.4714 14.0051 18.5305C13.945 18.5906 13.8168 18.7556 13.9136 18.9905C14.1234 19.4972 13.8822 20.0791 13.3756 20.2889L12.1759 20.7857C12.0548 20.835 11.9266 20.861 11.7966 20.861ZM10.4883 19.5258C10.7735 19.5258 11.1375 19.6693 11.3043 20.071C11.359 20.2019 11.4612 20.3051 11.593 20.3589C11.7248 20.4136 11.8692 20.4136 12.001 20.3589L13.2008 19.8621C13.4725 19.7491 13.6016 19.4371 13.4895 19.1663C13.3227 18.7646 13.4787 18.405 13.6805 18.2042C13.8822 18.0033 14.2418 17.8464 14.6426 18.0123C14.7744 18.067 14.9188 18.067 15.0506 18.0123C15.1824 17.9576 15.2846 17.8553 15.3393 17.7235L15.8361 16.5238C15.8908 16.3929 15.8908 16.2485 15.8361 16.1167C15.7814 15.9849 15.6792 15.8827 15.5483 15.828C15.1465 15.6612 15.0031 15.2971 15.0031 15.012C15.0031 14.7268 15.1465 14.3628 15.5483 14.196C15.6801 14.1413 15.7823 14.0391 15.837 13.9073C15.8917 13.7755 15.8917 13.6311 15.837 13.4993L15.3402 12.2995C15.2855 12.1677 15.1833 12.0655 15.0515 12.0108C14.9197 11.9561 14.7753 11.9561 14.6435 12.0108C14.2409 12.1776 13.8822 12.0216 13.6814 11.8198C13.4796 11.6181 13.3236 11.2594 13.4895 10.8577C13.5442 10.7259 13.5442 10.5815 13.4895 10.4497C13.4348 10.3179 13.3326 10.2157 13.2008 10.161L12.001 9.66421C11.8692 9.60952 11.7248 9.61041 11.593 9.66421C11.4612 9.71891 11.359 9.82113 11.3043 9.95205C11.1384 10.3538 10.7735 10.4972 10.4883 10.4972C10.2032 10.4972 9.83912 10.3538 9.67234 9.95205C9.56026 9.68125 9.24821 9.55123 8.97652 9.66332L7.77677 10.1601C7.64585 10.2148 7.54274 10.317 7.48894 10.4479C7.43424 10.5797 7.43424 10.7241 7.48894 10.8559C7.65482 11.2576 7.4988 11.6163 7.29705 11.818C7.0953 12.0198 6.73663 12.1767 6.33492 12.0099C6.06412 11.8978 5.75118 12.027 5.6391 12.2978L5.14234 13.4975C5.08764 13.6293 5.08764 13.7737 5.14234 13.9055C5.19703 14.0373 5.29926 14.1395 5.43017 14.1942C5.83278 14.361 5.97535 14.7251 5.97535 15.0102C5.97535 15.2953 5.83188 15.6594 5.43017 15.8262C5.15937 15.9383 5.03025 16.2512 5.14234 16.5229L5.6391 17.7226C5.75208 17.9934 6.06412 18.1235 6.33492 18.0114C6.83974 17.8024 7.19931 18.1046 7.29705 18.2024C7.4988 18.4041 7.65572 18.7628 7.48894 19.1654C7.37685 19.4371 7.50597 19.7491 7.77677 19.8612L8.97652 20.358C9.24732 20.4701 9.56026 20.3409 9.67234 20.0701C9.83912 19.6693 10.2032 19.5258 10.4883 19.5258ZM10.4883 17.3496C9.19979 17.3496 8.15068 16.3014 8.15068 15.012C8.15068 13.7235 9.1989 12.6744 10.4883 12.6744C11.7768 12.6744 12.8259 13.7226 12.8259 15.012C12.8259 16.3005 11.7768 17.3496 10.4883 17.3496ZM10.4883 13.1352C9.45355 13.1352 8.61157 13.9772 8.61157 15.012C8.61157 16.0468 9.45355 16.8887 10.4883 16.8887C11.5231 16.8887 12.3651 16.0468 12.3651 15.012C12.3651 13.9772 11.5231 13.1352 10.4883 13.1352Z" fill="black"/>
</g>
<defs>
<clipPath id="clip0_421_17">
<rect width="21" height="21" fill="white"/>
</clipPath>
</defs>
</svg>
