<svg width="16" height="16" viewBox="0 0 16 16" fill="none" xmlns="http://www.w3.org/2000/svg">
<path d="M11.4527 15.8942H4.52969C3.70548 15.8942 3.02212 15.2496 2.97383 14.4268L2.28397 2.64449C2.27554 2.49959 2.32718 2.35769 2.42658 2.25214C2.52616 2.14659 2.66473 2.08688 2.80997 2.08688H13.1722C13.3173 2.08688 13.4558 2.14676 13.5556 2.25214C13.655 2.35769 13.7066 2.49959 13.6984 2.64449L13.0085 14.427C12.9602 15.2496 12.2769 15.8942 11.4527 15.8942ZM3.36846 3.14045L4.02582 14.3652C4.04128 14.6318 4.26274 14.8404 4.52969 14.8404H11.4527C11.7196 14.8404 11.9407 14.6318 11.9563 14.3653L12.6135 3.14045H3.36846Z" fill="#6C7783"/>
<path d="M14.2602 3.14045H1.72194C1.43093 3.14045 1.19507 2.90459 1.19507 2.61358C1.19507 2.32256 1.43093 2.0867 1.72194 2.0867H14.2603C14.5514 2.0867 14.7872 2.32256 14.7872 2.61358C14.7872 2.90459 14.5514 3.14045 14.2602 3.14045Z" fill="#6C7783"/>
<path d="M10.4022 3.14045H5.57985C5.28884 3.14045 5.05298 2.90459 5.05298 2.61357V1.63148C5.05298 0.780401 5.74547 0.0879116 6.59672 0.0879116H9.38547C10.2367 0.0879116 10.929 0.780401 10.929 1.63148V2.61357C10.929 2.90459 10.6932 3.14045 10.4022 3.14045ZM6.10673 2.0867H9.87511V1.63148C9.87529 1.36137 9.65558 1.14166 9.3853 1.14166H6.59672C6.32661 1.14166 6.1069 1.36137 6.1069 1.63148L6.10673 2.0867Z" fill="#6C7783"/>
<path d="M10.3321 13.2582C10.3216 13.2582 10.3114 13.2579 10.3007 13.2573C10.0104 13.2403 9.78857 12.9909 9.80561 12.7004L10.2401 5.28132C10.2571 4.99066 10.5049 4.76621 10.797 4.78623C11.0873 4.80327 11.3091 5.05248 11.2921 5.34296L10.8576 12.7622C10.8413 13.0422 10.6089 13.2582 10.3321 13.2582Z" fill="#6C7783"/>
<path d="M5.6498 13.2582C5.37284 13.2582 5.14084 13.0422 5.12433 12.7622L4.69001 5.34296C4.67297 5.05248 4.89461 4.80327 5.18509 4.78623C5.47417 4.76674 5.72479 4.99083 5.74182 5.28132L6.17615 12.7004C6.19318 12.9909 5.97154 13.2403 5.68106 13.2573C5.6707 13.2579 5.66033 13.2582 5.6498 13.2582Z" fill="#6C7783"/>
<path d="M7.99111 13.2582C7.7001 13.2582 7.46423 13.0223 7.46423 12.7313V5.31223C7.46423 5.02122 7.7001 4.78535 7.99111 4.78535C8.28212 4.78535 8.51798 5.02122 8.51798 5.31223V12.7313C8.51798 13.0223 8.28212 13.2582 7.99111 13.2582Z" fill="#6C7783"/>
</svg>
