<svg width="21" height="21" viewBox="0 0 21 21" fill="none" xmlns="http://www.w3.org/2000/svg">
<path d="M11.246 12.7812H6.24594L5.3059 15.2665C5.19582 15.5575 4.91714 15.75 4.60599 15.75C4.0764 15.75 3.7144 15.2149 3.91135 14.7234L7.80126 5.01435C7.95598 4.62816 8.33014 4.375 8.74617 4.375C9.16199 4.375 9.53596 4.62788 9.69084 5.01376L13.5894 14.7269C13.786 15.2167 13.4253 15.75 12.8976 15.75C12.589 15.75 12.3123 15.5598 12.2017 15.2716L11.246 12.7812ZM6.72135 11.5468H10.7787L8.74594 6.22656L6.72135 11.5468Z" fill="#909FAF"/>
<path d="M15.75 15.75V4.375M17.0625 4.375H14.4375M17.0625 15.75H14.4375" stroke="#909FAF" stroke-width="1.3" stroke-linecap="round"/>
</svg>
