<svg width="18" height="18" viewBox="0 0 18 18" fill="none" xmlns="http://www.w3.org/2000/svg">
<path d="M9.63937 10.9553H5.35363L4.54788 13.0855C4.45353 13.335 4.21465 13.5 3.94795 13.5C3.49402 13.5 3.18373 13.0414 3.35255 12.62L6.68676 4.29802C6.81938 3.967 7.14009 3.75 7.49668 3.75C7.8531 3.75 8.17365 3.96676 8.3064 4.29751L11.648 12.6231C11.8165 13.0429 11.5074 13.5 11.0551 13.5C10.7905 13.5 10.5533 13.337 10.4586 13.09L9.63937 10.9553ZM5.76112 9.8973H9.23887L7.49649 5.33705L5.76112 9.8973Z" fill="#6C7783"/>
<path d="M13.5 13.5V3.75M14.625 3.75H12.375M14.625 13.5H12.375" stroke="#6C7783" stroke-width="1.3" stroke-linecap="round"/>
</svg>
