<svg width="21" height="21" viewBox="0 0 21 21" fill="none" xmlns="http://www.w3.org/2000/svg">
<path d="M12.3274 14.1867C11.5956 13.455 10.6889 13.0541 9.85708 13.0168L8.83252 11.9922L11.9239 8.90076L12.9485 9.92533C12.9858 10.7569 13.3867 11.6639 14.1184 12.3956C14.8502 13.1274 15.7569 13.5282 16.5887 13.5656L20.0603 17.0371C20.914 17.8908 20.9138 19.2747 20.0603 20.1285C19.2065 20.9823 17.8226 20.9823 16.9688 20.1285L13.4973 16.657C13.4597 15.8251 13.0591 14.9184 12.3274 14.1867Z" fill="#F7AB31"/>
<path d="M0.23584 0.985179L0.987171 0.231514L3.1595 1.45184L3.77316 2.70484L10.9458 9.87749L9.87948 10.9438L2.70917 3.77117L1.45384 3.15751L0.23584 0.985179Z" fill="#CCCCCC"/>
<path d="M18.5141 21C17.8948 21 17.2753 20.7643 16.804 20.2928L13.3327 16.8212C13.2917 16.7802 13.2674 16.7251 13.2648 16.6672C13.2287 15.8592 12.8269 15.015 12.1628 14.3512C11.4987 13.6871 10.6545 13.2853 9.84649 13.2492C9.78839 13.2466 9.73356 13.2223 9.69249 13.1813L8.66793 12.1565C8.57716 12.0657 8.57716 11.9185 8.66793 11.8277L11.7594 8.73649C11.803 8.69286 11.862 8.66836 11.9239 8.66836C11.9857 8.66836 12.0447 8.69286 12.0884 8.73649L13.1129 9.76106C13.154 9.80213 13.178 9.85696 13.1808 9.91506C13.2172 10.7231 13.619 11.5673 14.2828 12.2314C14.9469 12.8952 15.7913 13.297 16.5991 13.3334C16.657 13.3362 16.7121 13.3602 16.7531 13.4013L20.2247 16.8728C20.6815 17.3294 20.9331 17.937 20.9331 18.5829C20.9331 19.2288 20.6815 19.8361 20.2247 20.2928C19.7529 20.7641 19.1336 21 18.5141 21ZM13.724 16.5548L17.133 19.9638C17.8948 20.7256 19.1338 20.7256 19.8957 19.9638C20.2648 19.5949 20.4678 19.1044 20.4678 18.5827C20.4678 18.0609 20.2648 17.5705 19.8957 17.2013L16.4867 13.7923C15.5928 13.7261 14.6746 13.2804 13.9538 12.5601C13.2336 11.8396 12.7879 10.9212 12.7216 10.0273L11.9241 9.22953L9.16143 11.9922L9.95896 12.79C10.8529 12.856 11.771 13.3017 12.4916 14.0222C13.2123 14.7427 13.658 15.6609 13.724 16.5548Z" fill="white"/>
<path d="M18.8371 19.138C18.7776 19.138 18.7181 19.1154 18.6726 19.0699L11.1649 11.5622C11.0741 11.4714 11.0741 11.3242 11.1649 11.2334C11.2556 11.1426 11.4029 11.1426 11.4936 11.2334L19.0014 18.7411C19.0921 18.8319 19.0921 18.9791 19.0014 19.0699C18.9561 19.1154 18.8966 19.138 18.8371 19.138Z" fill="black"/>
<path d="M9.8806 11.1769C9.819 11.1769 9.75974 11.1524 9.7161 11.1088L2.57099 3.96344L1.35112 3.36541C1.30889 3.34464 1.27389 3.31151 1.25079 3.27044L0.0318598 1.09881C-0.01924 1.00781 -0.0033734 0.894181 0.0701264 0.820448L0.822625 0.0679498C0.896358 -0.00555001 1.00999 -0.0211833 1.10076 0.0296832L3.27239 1.24838C3.31345 1.27148 3.34659 1.30648 3.36735 1.34871L3.96562 2.56881L11.1107 9.71393C11.2015 9.80469 11.2015 9.95193 11.1107 10.0427L10.0449 11.1086C10.0015 11.1522 9.9422 11.1769 9.8806 11.1769ZM1.62086 2.97971L2.81062 3.56304C2.83349 3.57424 2.85449 3.58917 2.87269 3.60737L9.8806 10.6155L10.6175 9.87843L3.60955 2.87028C3.59135 2.85231 3.57642 2.83131 3.56522 2.80821L2.98189 1.61845L1.02702 0.521315L0.523725 1.02485L1.62086 2.97971Z" fill="white"/>
<path d="M7.04587 15.8643L15.8313 7.0789C17.1095 7.59877 18.6301 7.34047 19.6671 6.30354C20.6457 5.32494 20.9275 3.91654 20.5194 2.68664L18.8471 4.35894C18.229 4.97704 17.2271 4.97704 16.6092 4.35894C15.9911 3.74084 15.9914 2.73891 16.6092 2.12105L18.2815 0.448749C17.0516 0.0408833 15.6432 0.322516 14.6646 1.30111C13.6277 2.33804 13.3694 3.85867 13.8893 5.13687L5.1036 13.9221C3.82541 13.4022 2.30478 13.6605 1.26785 14.6974C0.289248 15.676 0.00738161 17.0844 0.415481 18.3143L2.08778 16.642C2.70588 16.0239 3.70781 16.0239 4.32567 16.642C4.94377 17.2601 4.94354 18.2621 4.32567 18.8799L2.65338 20.5522C3.88327 20.9601 5.29167 20.6785 6.27027 19.6999C7.3072 18.6632 7.56573 17.1425 7.04587 15.8643Z" fill="#CCCCCC"/>
<path d="M3.78034 20.9683C3.38017 20.9683 2.97534 20.9043 2.58007 20.7732C2.50354 20.7478 2.44567 20.6845 2.42701 20.6061C2.40834 20.5277 2.43191 20.4451 2.48884 20.3882L4.16114 18.7159C4.41617 18.4609 4.55664 18.1221 4.55664 17.7613C4.55664 17.4006 4.41617 17.0618 4.16137 16.8068C3.63474 16.2804 2.77817 16.2804 2.25224 16.8068L0.579945 18.4791C0.523012 18.5358 0.439712 18.5598 0.362012 18.5409C0.283612 18.5225 0.220379 18.4644 0.194946 18.3878C-0.257486 17.0233 0.090646 15.5465 1.10354 14.5332C2.14164 13.4953 3.67417 13.1572 5.04593 13.6512L13.6181 5.079C13.1241 3.70677 13.462 2.17448 14.5001 1.13661C15.513 0.123481 16.9909 -0.224651 18.3548 0.228014C18.4313 0.253448 18.4894 0.316681 18.5078 0.395081C18.5265 0.473481 18.5032 0.55608 18.446 0.613014L16.7737 2.28531C16.2475 2.81171 16.2475 3.66804 16.7737 4.19444C17.0287 4.44947 17.3675 4.5897 17.7283 4.5897C18.089 4.5897 18.4278 4.44924 18.6828 4.1942L20.3551 2.52191C20.4121 2.46474 20.4956 2.44188 20.5731 2.46008C20.6517 2.47874 20.7147 2.53661 20.7401 2.61314C21.1928 3.97767 20.8447 5.45467 19.8315 6.4678C18.7934 7.50613 17.2616 7.84376 15.8891 7.35003L7.31696 15.9222C7.81116 17.2944 7.47283 18.8265 6.43473 19.8646C5.71513 20.584 4.7615 20.9683 3.78034 20.9683ZM3.10204 20.4328C4.18797 20.6593 5.3103 20.3313 6.10597 19.5356C7.04816 18.5934 7.33283 17.1866 6.83046 15.9521C6.79523 15.8653 6.8153 15.7661 6.88156 15.7001L15.6672 6.9144C15.7335 6.84813 15.8329 6.82807 15.9192 6.8633C17.1538 7.3659 18.5606 7.081 19.5028 6.1388C20.2984 5.34314 20.626 4.22057 20.3999 3.13487L19.0118 4.52297C18.6691 4.86574 18.2134 5.05474 17.7285 5.05474C17.2436 5.05474 16.7877 4.86597 16.4452 4.5232C15.7375 3.81551 15.7375 2.66401 16.4452 1.95631L17.8333 0.56798C16.7469 0.342114 15.625 0.66948 14.8293 1.46514C13.8871 2.40734 13.6027 3.81411 14.1051 5.0489C14.1403 5.13547 14.12 5.23487 14.054 5.3009L5.26807 14.0866C5.2018 14.1526 5.1024 14.172 5.01607 14.1377C3.78127 13.6348 2.37474 13.9197 1.43231 14.8619C0.636645 15.6578 0.309046 16.7802 0.535145 17.8659L1.92348 16.4778C2.63117 15.7701 3.78267 15.7701 4.49037 16.4778C4.83313 16.8205 5.02213 17.2762 5.0219 17.7611C5.0219 18.246 4.83313 18.7019 4.49014 19.0444L3.10204 20.4328Z" fill="white"/>
<path d="M6.88992 14.3106C6.83042 14.3106 6.77092 14.2879 6.72542 14.2424C6.63466 14.1517 6.63466 14.0044 6.72542 13.9137L13.8803 6.75877C13.9711 6.668 14.1183 6.668 14.2091 6.75877C14.2999 6.84953 14.2999 6.99677 14.2091 7.08753L7.05442 14.2424C7.00892 14.2877 6.94942 14.3106 6.88992 14.3106Z" fill="black"/>
</svg>
