<svg width="21" height="21" viewBox="0 0 21 21" fill="none" xmlns="http://www.w3.org/2000/svg">
<g clip-path="url(#clip0_421_9)">
<path d="M10.4882 11.5299C8.71792 11.5299 7.26941 10.0814 7.26941 8.31109V7.15671C7.26941 5.38641 8.71792 3.9379 10.4882 3.9379C12.2585 3.9379 13.707 5.38641 13.707 7.15671V8.31109C13.707 10.0816 12.2585 11.5299 10.4882 11.5299Z" fill="#6EB1E1"/>
<path d="M12.3007 11.9723C11.7563 12.2542 11.1408 12.4164 10.4883 12.4164C9.8357 12.4164 9.22024 12.2542 8.67578 11.9723C6.24231 12.3355 4.35999 14.4472 4.35999 16.9775V20.307C4.35999 20.6117 4.60939 20.8609 4.9139 20.8609H16.0622C16.3669 20.8609 16.6161 20.6115 16.6161 20.307V16.9775C16.6165 14.4472 14.7342 12.3355 12.3007 11.9723Z" fill="#6EB1E1"/>
<path d="M16.5453 8.14951C16.0008 8.43142 15.3853 8.59369 14.7328 8.59369C14.7319 8.59369 14.7312 8.59369 14.7302 8.59369C14.6625 9.61069 14.2383 10.5302 13.5789 11.2284C15.9658 12.0769 17.6538 14.3746 17.6538 16.9775V17.0381H20.3072C20.6119 17.0381 20.8613 16.7887 20.8613 16.484V13.1548C20.8611 10.6242 18.9787 8.51256 16.5453 8.14951Z" fill="#71D456"/>
<path d="M14.7328 0.115387C13.0634 0.115387 11.6815 1.4037 11.5292 3.03523C13.3732 3.50155 14.7441 5.16996 14.7441 7.15694V7.7067C16.5091 7.70048 17.9514 6.25496 17.9514 4.48858V3.3342C17.9516 1.5639 16.5031 0.115387 14.7328 0.115387Z" fill="#71D456"/>
<path d="M3.32287 16.9775C3.32287 14.3746 5.01065 12.0767 7.39756 11.2284C6.73808 10.5302 6.31371 9.61046 6.24617 8.59369C6.24525 8.59369 6.24456 8.59369 6.24364 8.59369C5.59107 8.59369 4.97584 8.43142 4.43115 8.14951C1.99768 8.51256 0.115356 10.6242 0.115356 13.1548V16.4842C0.115356 16.7889 0.364766 17.0383 0.669497 17.0383H3.32287V16.9775Z" fill="#F0582F"/>
<path d="M6.23207 7.70647V7.15671C6.23207 5.16973 7.60267 3.50132 9.44696 3.035C9.29482 1.4037 7.91293 0.115387 6.24359 0.115387C4.47329 0.115387 3.02478 1.5639 3.02478 3.3342V4.48858C3.02478 6.25496 4.46707 7.70025 6.23207 7.70647Z" fill="#F0582F"/>
</g>
<defs>
<clipPath id="clip0_421_9">
<rect width="21" height="21" fill="white"/>
</clipPath>
</defs>
</svg>
