<svg width="60" height="60" viewBox="0 0 60 60" fill="none" xmlns="http://www.w3.org/2000/svg">
<g clip-path="url(#clip0_373_54)">
<circle cx="30" cy="30" r="30" fill="#D9D9D9"/>
<path d="M30.2983 26.0526C36.1118 26.0526 40.8246 21.3398 40.8246 15.5263C40.8246 9.71279 36.1118 5 30.2983 5C24.4848 5 19.772 9.71279 19.772 15.5263C19.772 21.3398 24.4848 26.0526 30.2983 26.0526Z" fill="black"/>
<path d="M44.9027 30.3375H15.6938C13.1015 30.3375 11 32.4389 11 35.0312V38.1141C11 47.4399 18.5601 55 27.8859 55H32.7105C42.0364 55 49.5965 47.4399 49.5965 38.1141V35.0312C49.5965 32.4389 47.495 30.3375 44.9027 30.3375Z" fill="black"/>
</g>
<defs>
<clipPath id="clip0_373_54">
<rect width="60" height="60" fill="white"/>
</clipPath>
</defs>
</svg>
