<svg width="21" height="21" viewBox="0 0 21 21" fill="none" xmlns="http://www.w3.org/2000/svg">
<g clip-path="url(#clip0_419_2)">
<circle cx="10.5" cy="10.5" r="10.5" fill="#D9D9D9"/>
<path d="M10.6044 9.11842C12.6391 9.11842 14.2886 7.46894 14.2886 5.43421C14.2886 3.39948 12.6391 1.75 10.6044 1.75C8.56964 1.75 6.92017 3.39948 6.92017 5.43421C6.92017 7.46894 8.56964 9.11842 10.6044 9.11842Z" fill="black"/>
<path d="M15.7159 10.6181H5.49279C4.58549 10.6181 3.84998 11.3536 3.84998 12.2609V13.3399C3.84998 16.604 6.49601 19.25 9.76006 19.25H11.4487C14.7127 19.25 17.3587 16.604 17.3587 13.3399V12.2609C17.3587 11.3536 16.6232 10.6181 15.7159 10.6181Z" fill="black"/>
</g>
<defs>
<clipPath id="clip0_419_2">
<rect width="21" height="21" fill="white"/>
</clipPath>
</defs>
</svg>
